<?xml version="1.0" standalone="no"?>
<!DOCTYPE svg PUBLIC "-//W3C//DTD SVG 1.1//EN" "http://www.w3.org/Graphics/SVG/1.1/DTD/svg11.dtd" >
<svg xmlns="http://www.w3.org/2000/svg">
<metadata></metadata>
<defs>
<font id="cinzelblack" horiz-adv-x="1228" >
<font-face units-per-em="2048" ascent="1638" descent="-410" />
<missing-glyph horiz-adv-x="512" />
<glyph horiz-adv-x="2048" />
<glyph horiz-adv-x="2048" />
<glyph unicode="&#xd;" horiz-adv-x="681" />
<glyph unicode=" "  horiz-adv-x="512" />
<glyph unicode="&#x09;" horiz-adv-x="512" />
<glyph unicode="&#xa0;" horiz-adv-x="512" />
<glyph unicode="!" horiz-adv-x="604" d="M92 1438h420l-47 -695l-92 -272h-144l-92 272zM113 155.5q0 75.5 54 130t131 54.5t130 -54.5t53 -130t-53 -130t-130 -54.5t-131 54.5t-54 130z" />
<glyph unicode="&#x22;" horiz-adv-x="806" d="M61 1034q70 174 70 283q0 53 -10 117l270 28v-31.5t-12 -78t-42 -121t-93.5 -124.5t-147.5 -83zM418 1034q70 174 69 283q0 53 -10 117l268 28v-31.5t-11 -78t-41.5 -121t-93 -124.5t-146.5 -83z" />
<glyph unicode="#" d="M41 444v123h242l57 328h-209v123h231l72 416h127l-72 -416h283l72 416h127l-72 -416h219v-123h-241l-58 -328h209v-123h-231l-78 -444h-127l78 444h-283l-78 -444h-127l78 444h-219zM410 567h282l58 328h-283z" />
<glyph unicode="$" horiz-adv-x="1259" d="M72 201.5q0 52.5 8 101.5q23 121 76 189h18q-2 -12 -2 -27q0 -139 104.5 -256t290.5 -133l35 465l-246 114q-141 63 -204 179q-51 90 -52 198q0 221 150 336q125 94 332 94q35 0 90 -2l12 154l98 -2l-12 -158q86 -6 158 -12h159l-45 -334h-20q0 154 -150 219 q-49 20 -108 29l-33 -420l252 -117q238 -109 238 -348.5t-154 -360t-410 -137.5l-14 -182l-98 6l14 174q-166 2 -290 39t-179 94q-18 45 -18 97.5zM418 1172.5q0 -56.5 44 -95.5t138 -80l35 -18l29 381q-147 -10 -211 -88q-35 -43 -35 -99.5zM666 76q117 10 179 66.5t62 126 t-49 123t-160 106.5z" />
<glyph unicode="%" horiz-adv-x="1591" d="M41 1034q0 223 141 338q113 90 287 90h2h40t92 -14t85 -33q92 -53 170 -53q86 0 213 68q33 16 43 22l80 -35l-762 -1456l-92 39l709 1337q-76 -49 -154 -49t-152 27q33 -66 33 -124t-4 -91q-18 -170 -132 -265.5t-289 -95.5t-253 101q-57 76 -57 194zM319 966.5 q0 -145.5 52.5 -144.5t88.5 74t47 173t11 156q0 156 -57.5 155.5t-98.5 -129.5q-43 -139 -43 -284.5zM780 264q1 223 142 340q113 90 278.5 90t239 -88t73.5 -223q0 -207 -122.5 -309.5t-299 -102.5t-253.5 101q-57 76 -58 192zM1044 193q0 -139 56 -140q49 0 85 73t48 174 t12 157q0 156 -59 155q-43 0 -77 -73.5t-49.5 -180t-15.5 -165.5z" />
<glyph unicode="&#x26;" horiz-adv-x="1865" d="M51 432q0 221 209 334q55 29 117 47q-88 141 -88 259t49 193.5t131 116.5q160 80 371 80q145 0 269 -35.5t171 -109.5l-96 -334h-19q-4 377 -237 377q-127 0 -183 -100q-27 -47 -26 -107q0 -106 82 -205.5t278 -269.5l275 -236q16 72 16 153t-40 168t-116 87h-2h-30v20 h524v-20h-29q-29 0 -43 -15.5t-18 -33t-6 -41.5q-25 -289 -109 -449q270 -236 383 -288l2 -23q-174 -20 -338 -20t-317 75q-166 -76 -410 -75q-336 0 -547 110q-223 119 -223 342zM485 559q0 -147 51.5 -239.5t120 -140.5t143 -72.5t159.5 -24.5t163 41q-88 63 -224 176 t-146 121q-154 127 -250 229q-16 -51 -17 -90z" />
<glyph unicode="'" horiz-adv-x="450" d="M61 1034q70 174 70 283q0 53 -10 117l270 28v-31.5t-12 -78t-42 -121t-93.5 -124.5t-147.5 -83z" />
<glyph unicode="(" horiz-adv-x="978" d="M184 684q0 330 170 547q180 227 553 268l13 -16q-326 -156 -326 -758q0 -686 321 -911l-12 -19q-184 43 -324.5 133t-224.5 209q-170 238 -170 547z" />
<glyph unicode=")" horiz-adv-x="978" d="M61 1483l13 16q373 -41 551 -268q172 -217 172 -547q0 -309 -170 -547q-86 -119 -226.5 -209t-322.5 -133l-12 19q322 225 321 911q0 602 -326 758z" />
<glyph unicode="*" horiz-adv-x="798" d="M72 1237l6 111l61 94l150 -76l102 -109l-72 132l-28 165l108 29l109 -29l-25 -165l-73 -134l102 111l150 78l61 -94l6 -113l-168 -27l-147 29l137 -63l121 -119l-72 -86l-104 -41l-78 149l-19 150l-16 -150l-76 -149l-104 41l-72 86l119 119l135 63l-147 -29z" />
<glyph unicode="+" horiz-adv-x="985" d="M82 567v133h344v347h133v-347h346v-133h-346v-344h-133v344h-344z" />
<glyph unicode="," horiz-adv-x="532" d="M72 156q0 100 67 149q45 35 88 35q150 0 203 -119q31 -76 31 -149.5t-33 -141.5q-70 -143 -197 -186q-43 -14 -77.5 -14t-61.5 6l-8 26q61 27 84 88q8 25 8 44q0 66 -52 126t-52 136z" />
<glyph unicode="-" horiz-adv-x="778" d="M61 598l21 82h614l21 -82l-21 -84h-614z" />
<glyph unicode="." horiz-adv-x="512" d="M72 155.5q0 75.5 54 130t130 54.5t130 -54.5t54 -130t-54 -130t-130 -54.5t-130 54.5t-54 130z" />
<glyph unicode="/" horiz-adv-x="899" d="M20 29l740 1452l121 -56l-740 -1454z" />
<glyph unicode="0" horiz-adv-x="1413" d="M72 717q0 340 169 542.5t466 202.5t465.5 -202.5t168.5 -542.5t-168.5 -543t-465.5 -203t-466 203t-169 543zM502 717q0 -543 141 -627q29 -16 64 -16q106 0 155 156.5t49 486.5q0 492 -112 604q-39 39 -92 39q-104 0 -154.5 -156.5t-50.5 -486.5z" />
<glyph unicode="1" horiz-adv-x="868" d="M61 1311v20q123 6 298.5 40t271.5 91h20v-1331q0 -47 33 -79t80 -32h43v-20h-731l2 20h43q45 0 78.5 33t33.5 78v1038q0 142 -135 142h-37z" />
<glyph unicode="2" horiz-adv-x="1347" d="M61 1303q185 159 570 159q133 0 265 -49t210 -145.5t78 -225.5q0 -182 -152 -342q-119 -129 -297 -245q-35 -23 -84 -53.5t-63 -41.5h389q92 0 159.5 52.5t120.5 162.5h21l-139 -575h-1065v20q55 68 148 179.5t155.5 184.5t138.5 175.5t119 181.5q109 188 108 344 q0 133 -71 209q-61 66 -166 66h-25q-264 -23 -262 -426h-20z" />
<glyph unicode="3" horiz-adv-x="1232" d="M61 1313q80 66 214 105.5t296 39.5q246 0 383.5 -92t137.5 -260q0 -133 -83 -213t-194 -84q127 -25 225 -111q111 -100 111 -281t-104 -313q-197 -248 -592 -247q-201 0 -375 77l4 21h22q154 0 292.5 56.5t225.5 171t87 259.5q0 90 -34 159t-91 108q-111 76 -254 77l4 21 h12q135 0 229.5 95t94.5 220q0 135 -84 193q-57 43 -137 43q-145 0 -205 -109q-47 -88 -47 -256v-35h-21z" />
<glyph unicode="4" horiz-adv-x="1316" d="M-31 387v21l1057 1054h21v-860h88q53 0 82.5 19.5t50.5 62.5h20l-63 -297h-178v-258q0 -45 32.5 -77t79.5 -32h23v-20h-693l3 20h20q47 0 80 31t35 76v260h-658zM315 602h312v301z" />
<glyph unicode="5" horiz-adv-x="1210" d="M20 -63l5 20h37.5t99 11.5t157 41t160 74.5t123.5 117q57 82 57 181t-67 165q-74 70 -199 69.5t-272 -55.5l-19 12l170 787l611 51q111 0 161 102h21l-86 -423l-629 -52l-39 -170q145 33 254 33t191 -22q178 -49 265 -171t87 -282q0 -139 -59.5 -246.5t-149.5 -173.5 q-211 -156 -500 -156q-217 0 -379 87z" />
<glyph unicode="6" horiz-adv-x="1382" d="M82 645q0 446 262 680q215 193 600 193q96 0 201 -15l8 -14q-184 -57 -264 -104.5t-125 -80t-78 -75.5t-57.5 -81t-40 -91t-24.5 -97.5t-15 -109.5q-6 -102 -6 -230t3 -202t13 -140.5t31 -105.5q41 -80 125 -80q123 0 151 150q14 76 15 221q0 264 -103 307 q-27 10 -64.5 10t-88.5 -32l-15 16q23 55 74 94t111.5 53.5t95.5 14.5q111 0 178.5 -33t120.5 -86q111 -109 110 -315q0 -229 -147 -373q-156 -150 -465 -150q-606 0 -606 676z" />
<glyph unicode="7" horiz-adv-x="1171" d="M10 952l58 478h1085l-262 -605q-59 -135 -147.5 -399t-133.5 -426h-348q63 102 223 380.5t248 467.5l107 227h-656q-59 0 -94 -29.5t-59 -93.5h-21z" />
<glyph unicode="8" horiz-adv-x="1302" d="M51 326q0 137 80 219t197 123q-188 147 -188.5 356t141 323.5t356.5 114.5t364.5 -98t149.5 -250q0 -104 -77 -175t-193 -99q240 -125 303 -213q67 -94 67 -217q0 -211 -172 -325t-469 -114q-414 0 -524 207q-35 66 -35 148zM397 377q0 -131 60 -211q69 -94 202 -94 q80 0 147.5 47t67.5 121.5t-69.5 138t-202.5 131.5t-158 82q-47 -84 -47 -215zM477 1184q0 -80 57.5 -135.5t227.5 -145.5q49 92 49 217q0 111 -47 172q-49 66 -127 66t-119 -47t-41 -127z" />
<glyph unicode="9" horiz-adv-x="1382" d="M82 936q0 281 213 420q152 100 399 100q606 0 606 -676q0 -446 -264 -680q-213 -190 -598 -190q-96 0 -200 12l-9 15q184 57 264 104t125.5 80t78 76t57 80.5t40 91t24.5 97.5t13 109q8 102 8.5 245t-6 229t-24.5 154.5t-53 98t-85 29.5t-81 -19.5t-48.5 -49t-25.5 -80.5 q-14 -74 -14 -219q0 -264 102 -308q27 -10 65 -10t89 33l14 -16q-22 -56 -73.5 -95t-112 -53t-94.5 -14q-111 0 -178.5 32.5t-120.5 85.5q-111 109 -111 318z" />
<glyph unicode=":" horiz-adv-x="512" d="M72 155.5q0 75.5 54 130t130 54.5t130 -54.5t54 -130t-54 -130t-130 -54.5t-130 54.5t-54 130zM72 939q0 77 54 131t130 54t130 -54t54 -131t-54 -130t-130 -53t-130 53t-54 130z" />
<glyph unicode=";" horiz-adv-x="532" d="M72 156q0 100 67 149q45 35 88 35q150 0 203 -119q31 -76 31 -149.5t-33 -141.5q-70 -143 -197 -186q-43 -14 -77.5 -14t-61.5 6l-8 26q61 27 84 88q8 25 8 44q0 66 -52 126t-52 136zM72 998.5q0 76.5 54 130t130 53.5t130 -53.5t54 -130t-54 -131t-130 -54.5t-130 54.5 t-54 131z" />
<glyph unicode="&#x3c;" horiz-adv-x="1026" d="M82 573v121l823 383v-145l-633 -297l633 -299v-146z" />
<glyph unicode="=" horiz-adv-x="985" d="M82 367v133h823v-133h-823zM82 725v133h823v-133h-823z" />
<glyph unicode="&#x3e;" horiz-adv-x="985" d="M82 190v146l633 299l-633 297v145l823 -383v-121z" />
<glyph unicode="?" horiz-adv-x="1009" d="M0 1280q47 82 167 132t286 50q240 0 367.5 -94t127.5 -268q0 -119 -66.5 -203t-234.5 -207q-106 -78 -119 -121q-16 -55 15 -116l-19 -13q-133 35 -184 135q-23 43 -23 75t3.5 60.5t26 66.5t49 66.5t53.5 61.5q59 74 59 199q0 256 -186 256q-199 0 -199 -316h-21z M276 155.5q0 75.5 54.5 130t131.5 54.5t130 -54.5t53 -130t-53 -130t-130 -54.5t-131.5 54.5t-54.5 130z" />
<glyph unicode="@" horiz-adv-x="2043" d="M41 547q0 119 55 262q84 205 266.5 354.5t425.5 214.5q160 43 287 43q518 0 750 -268q170 -199 170 -483q0 -338 -203 -585t-549 -321q-100 -23 -213 -22q-270 0 -604 129l-8 20q219 -90 413 -90q258 0 461 129q168 111 269 301q119 219 118.5 467t-90.5 398 q-102 172 -309 219q-80 14 -125 14h-55q-178 -4 -373 -137q-190 -131 -313 -393q-106 -221 -107 -391q0 -88 33 -126t69.5 -40t64.5 8t52.5 26.5t50 41t48 50t46 57.5t44.5 58q51 74 82 113l260 354q94 117 112 158h13l172 -827q18 -96 82 -97h10l-4 -14h-488l2 14h15 q31 0 58.5 24.5t27.5 44t-2 28.5l-17 108h-278q-98 -127 -174 -182q-82 -57 -199 -57.5t-215 83.5q-131 113 -131 314zM815 461h213l-39 248z" />
<glyph unicode="A" horiz-adv-x="1474" d="M-82 0v20h19q47 0 93 28t76 83l478 1047q109 229 116 305h19l649 -1350q66 -113 172 -113h16v-20h-776v20h19q45 0 67.5 28t22.5 51.5t-10 50.5l-80 190h-439l-81 -190q-10 -27 -10.5 -43.5t7 -36t31 -35t49.5 -15.5h19v-20h-457zM406 442h350l-172 410z" />
<glyph unicode="B" horiz-adv-x="1497" d="M61 0v20h27q74 0 113 64q16 29 18 63v1139q-2 74 -65 111q-31 16 -66 16h-27v21h713q569 0 569 -357q0 -207 -167 -276q-47 -18 -101 -21q158 -8 265.5 -107.5t107.5 -262.5q0 -205 -174 -307.5t-467 -102.5h-746zM639 106h27h2q133 0 216 80t83 243t-65.5 246t-192.5 83 v18q195 0 195 276q0 279 -238 279h-27v-1225z" />
<glyph unicode="C" horiz-adv-x="1624" d="M72 719q0 231 106.5 399t308 256t494.5 88t514 -94l-20 -391h-19q-59 207 -172 295t-280 88q-227 0 -354.5 -168t-127.5 -468t118 -472t327 -178q242 0 350 114q102 106 160 410h16l49 -373q-151 -253 -569 -253h-3q-420 1 -659 197t-239 550z" />
<glyph unicode="D" horiz-adv-x="1724" d="M61 0v20h27q53 0 91 38t40 92v1146q0 49 -40 83t-91 34h-25l-2 21h777q385 0 601 -189.5t216 -527.5t-216 -527.5t-601 -189.5h-777zM639 102h158q190 0 298.5 163t108.5 452t-108.5 451.5t-298.5 162.5h-158v-1229z" />
<glyph unicode="E" horiz-adv-x="1366" d="M61 0v20h27q53 0 91 38t40 92v1134q-2 66 -55 105q-32 24 -73 24h-3h-27v21h908q63 0 138 12t105 24v-421h-20v16q0 164 -119 229q-57 33 -137 35h-297v-571h223q98 2 159.5 64.5t61.5 160.5v8h21v-569h-21v10q0 96 -61 158.5t-158 64.5h-225v-551h252q150 0 264.5 98.5 t161.5 272.5h20l-77 -475h-1199z" />
<glyph unicode="F" horiz-adv-x="1292" d="M61 0v20h27q53 0 91 38t40 92v1134q-2 53 -40 91t-91 38h-27v21h908q88 0 155.5 14t87.5 22v-421h-20v16q0 164 -119 229q-57 33 -137 35h-297v-571h223q98 2 159.5 64.5t61.5 158.5v10h21v-569h-21v10q0 96 -61 158.5t-158 64.5h-225v-505q0 -53 39 -91.5t92 -38.5h27 v-20h-736z" />
<glyph unicode="G" horiz-adv-x="1763" d="M72 720q0 349 217 545.5t602 196.5q166 0 342 -27.5t268 -66.5l-20 -391h-19q-106 383 -469 383q-471 0 -471 -660q0 -299 97.5 -462.5t295.5 -163.5q109 0 190 58t81 161l2 280q0 45 -27.5 69t-77.5 24h-32v20h688v-20h-31q-51 0 -78 -24q-24 -22 -24 -63v-6v-337 q-115 -145 -416 -224q-156 -41 -320 -41q-367 0 -582.5 200t-215.5 549z" />
<glyph unicode="H" horiz-adv-x="1828" d="M61 0v20h27q53 0 91 38t40 92v1136q-2 53 -40 90t-91 37h-27v21h736v-21h-27q-53 0 -91 -37t-40 -90v-518h551v518q-2 53 -40 90t-91 37h-27v21h735v-21h-26q-74 0 -113 -63q-16 -31 -18 -66v-1134q2 -53 40 -91.5t91 -38.5h26v-20h-735v20h27q53 0 91 37t40 90v519h-551 v-516q2 -76 66 -113q31 -16 65 -17h27v-20h-736z" />
<glyph unicode="I" horiz-adv-x="856" d="M61 0v20h27q53 0 91 38t40 92v1136q-2 53 -40 90t-91 37h-27v21h736v-21h-27q-53 0 -91 -37t-40 -90v-1136q0 -53 39 -91.5t92 -38.5h27v-20h-736z" />
<glyph unicode="J" horiz-adv-x="868" d="M-10 -391q240 109 239 500v1175q-2 53 -39.5 91t-91.5 38h-26v21h735v-21h-27q-74 0 -112 -63q-16 -29 -19 -66v-1182q0 -168 -95 -294.5t-247 -182.5q-109 -41 -225 -41q-45 0 -92 6v19z" />
<glyph unicode="K" horiz-adv-x="1683" d="M61 0v20h27q53 0 91 38t40 92v1136q-2 53 -40 90t-91 37h-27v21h736v-21h-27q-53 0 -91 -37t-40 -90v-1136q0 -53 39 -91.5t92 -38.5h27v-20h-736zM705 651l489 668q14 20 14 36.5t-6 28.5q-14 31 -57 31h-21v19h494v-19h-8q-137 0 -226 -100l-346 -418l480 -721 q100 -152 219 -156v-20h-221q-377 0 -527 205q-61 82 -172.5 263t-111.5 183z" />
<glyph unicode="L" horiz-adv-x="1335" d="M61 0v20h27q53 0 91 38t40 92v1134q-2 76 -65 113q-31 16 -66 16h-27v21h736v-21h-27q-53 0 -92 -38t-39 -91v-1180h252q150 0 264.5 98.5t161.5 272.5h20l-77 -475h-1199z" />
<glyph unicode="M" horiz-adv-x="1982" d="M-51 0v20h33q57 0 99 35t50 95l180 1312h19l688 -940l631 940h18l186 -1312q14 -82 82 -115q31 -15 68 -15h33v-20h-727v18h32q33 0 56.5 28t23.5 60l-78 599l-348 -517q-35 -48 -61 -118q-25 -65 -25 -112v-7h-18l-533 735l-71 -580q0 -33 23.5 -60.5t56.5 -27.5h32v-18 h-450z" />
<glyph unicode="N" horiz-adv-x="1804" d="M41 0v20h39q51 0 88 36t37 89v1063q0 143 -21 228l-6 28h21l981 -872v696q-2 53 -39 89t-88 36h-39v21h749v-21h-37q-51 0 -87.5 -36t-39.5 -87v-1057q0 -152 21 -233l6 -29h-18l-981 873v-699q0 -74 63 -108q29 -16 62 -17h39v-20h-750z" />
<glyph unicode="O" horiz-adv-x="1853" d="M72 717q0 350 226.5 547.5t623.5 197.5q264 0 455.5 -88t294 -257t102.5 -400q0 -350 -227.5 -548t-625 -198t-623.5 198t-226 548zM524 717q0 -303 105.5 -473t293 -170t293 170t105.5 473t-105.5 473t-293 170t-293 -170t-105.5 -473z" />
<glyph unicode="P" horiz-adv-x="1447" d="M72 0v20h26q74 0 113 64q18 31 18 66v1146q-6 49 -42.5 83t-88.5 34h-24l-2 21h780q281 0 430 -117q137 -104 137 -303q0 -94 -38 -182.5t-109 -147.5q-129 -104 -275 -104q-147 0 -278 94v20q74 12 111.5 40t60.5 50q51 55 68.5 129t17.5 105q0 162 -69.5 237.5 t-186.5 75.5h-72v-1181q2 -53 40 -91.5t91 -38.5h27v-20h-735z" />
<glyph unicode="Q" horiz-adv-x="1867" d="M82 717q0 350 226.5 547.5t623.5 197.5q264 0 455.5 -88t294 -257t102.5 -400q0 -352 -228 -549q-111 -96 -268 -145q172 -29 301 -73t297 -106q276 -100 510 -100t408 125l14 -6q0 -131 -56.5 -237t-162.5 -167q-147 -86 -361 -86q-74 0 -221 34t-290.5 113t-262 163 t-192.5 141t-166 101t-178 46q-395 2 -620.5 199t-225.5 547zM535 717q0 -303 105 -473t292.5 -170t293 170t105.5 473t-105.5 473t-293 170t-292.5 -170t-105 -473z" />
<glyph unicode="R" horiz-adv-x="1624" d="M72 0v20h26q53 0 91 37t40 90v1137q-2 76 -65 113q-31 16 -66 16h-26v21h800q401 -1 510 -226q33 -72 33 -148.5t-16.5 -135t-50.5 -115.5q-76 -123 -261 -152q80 -23 144 -79q68 -57 127 -160q154 -262 235 -338q61 -57 156 -60v-20h-256q-266 0 -381 59 q-164 84 -233 289q-18 59 -31.5 125t-23 95.5t-21.5 55t-27 40.5q-25 25 -57 36v21h33q119 0 178 108q31 57 38 124t7 83.5v20.5q-14 270 -234 270h-90v-1177q0 -53 39 -91.5t92 -38.5h25v-20h-735z" />
<glyph unicode="S" horiz-adv-x="1320" d="M92 202v6q0 49 8 95q23 121 76 189h19q-2 -12 -2 -27q0 -152 119.5 -271.5t326.5 -119.5q139 0 214 58t75 133t-51.5 128t-165.5 107l-334 155q-141 63 -205 179q-51 90 -51 198q0 221 149 336q125 94 332 94q135 0 346 -20h160l-45 -334h-21q0 113 -88 182.5t-224 69.5 t-211 -47t-81 -125v-11q0 -89 123 -153q23 -12 60 -27l383 -178q238 -109 238 -355q0 -248 -177 -371q-176 -122 -469 -122q-170 0 -299 38t-186 95q-19 46 -19 98z" />
<glyph unicode="T" horiz-adv-x="1429" d="M20 1051v422q29 -12 104 -24.5t138 -12.5h907q63 0 137 12t105 25v-422l-20 2v14q0 166 -123 233q-59 31 -142 33h-200v-1186q2 -53 40 -90t91 -37h26v-20h-735v20h27q53 0 91 37t40 88v1188h-203q-123 -2 -192.5 -72.5t-69.5 -193.5v-14z" />
<glyph unicode="U" horiz-adv-x="1730" d="M61 1413v21h703v-21h-33q-45 0 -75.5 -27.5t-32.5 -70.5v-783q0 -215 98 -335.5t274 -120.5t275.5 113.5t99.5 316.5v809q-2 43 -32.5 70.5t-75.5 27.5h-33v21h461v-21h-33q-43 0 -75 -27.5t-34 -68.5v-791q0 -260 -160.5 -407.5t-453.5 -147.5q-367 0 -549 143.5 t-182 409.5v787q0 45 -32 73.5t-77 28.5h-33z" />
<glyph unicode="V" horiz-adv-x="1474" d="M-82 1413v21h776v-21h-18q-43 0 -64.5 -27.5t-21.5 -52t8 -49.5l293 -702l305 702q12 27 12 50.5t-22.5 51t-67.5 27.5h-18v21h456v-21h-18q-106 0 -170 -110l-477 -1047q-109 -229 -117 -305h-18l-650 1349q-63 113 -172 113h-16z" />
<glyph unicode="W" horiz-adv-x="1974" d="M-102 1413v21h735v-21h-19q-61 0 -82 -57q-2 -12 -2 -28.5t9 -41.5l223 -557l354 737l19 -2l407 -753l164 575q4 23 4 40t-6 37.5t-26.5 35t-49.5 14.5h-18v21h446v-21h-16q-51 0 -102.5 -29.5t-73.5 -87.5l-348 -1114q-31 -96 -31 -192q0 -18 2 -35h-21l-473 891 l-323 -664q-53 -115 -56 -227h-18l-506 1341q-29 59 -77 88t-99 29h-16z" />
<glyph unicode="X" horiz-adv-x="1583" d="M-68 0v20h29q111 0 203 117l407 557l-391 600q-35 49 -90 84t-117 35h-28v21h823v-21h-25q-45 0 -69 -43q-14 -20 -14.5 -41.5t12.5 -42.5l239 -362l232 362q12 20 12 42t-12 42q-27 43 -72 43h-24l-3 21h531v-21h-29q-59 0 -112.5 -33.5t-90.5 -85.5l-342 -510l422 -645 q33 -49 89.5 -84t117.5 -35h29v-20h-828v20h27q43 0 70 43q12 20 12 41t-12 43l-271 412l-290 -412q-14 -24 -14 -45q0 -33 34 -61q25 -20 51 -21h27v-20h-533z" />
<glyph unicode="Y" horiz-adv-x="1492" d="M-92 1413v21h790v-21h-24q-45 0 -70 -41q-14 -23 -14 -44t12 -42l281 -506l291 506q12 20 12 41t-15 43q-27 43 -69 43h-25v21h510v-21h-28q-61 0 -118 -35t-89 -86l-402 -633v-509q0 -53 38 -91.5t93 -38.5h25v-20h-733v20h26q53 0 91 37t40 90v512l-391 637 q-51 80 -141 107q-31 10 -61 10h-29z" />
<glyph unicode="Z" horiz-adv-x="1368" d="M72 0v18l680 1315h-369q-123 -2 -192.5 -72.5t-69.5 -193.5v-16h-21v422q31 -12 108 -24.5t108 -12.5h32h707q86 0 145.5 10t71.5 16v-18l-688 -1342h288q150 0 264.5 99.5t161.5 273.5h21l-78 -475h-1169z" />
<glyph unicode="[" horiz-adv-x="966" d="M246 -184v1663h633v-21l-213 -102v-1417l219 -103v-20h-639z" />
<glyph unicode="\" horiz-adv-x="899" d="M20 1425l121 56l740 -1452l-121 -58z" />
<glyph unicode="]" horiz-adv-x="966" d="M82 -164l219 103v1417l-213 102v21h633v-1663h-639v20z" />
<glyph unicode="^" horiz-adv-x="1171" d="M72 352l446 428h139l445 -428h-182l-332 314l-334 -314h-182z" />
<glyph unicode="_" horiz-adv-x="1024" d="M0 -123h1024v-102h-1024v102z" />
<glyph unicode="`" d="M111 1712q43 150 174 205q88 -76 183 -183.5t134 -197.5l-14 -14q-109 12 -242 67.5t-235 122.5z" />
<glyph unicode="a" horiz-adv-x="1294" d="M-86 0v20h16q43 0 87 25t69 76l422 909q100 219 106 273h17l577 -1178q54 -105 160 -105h16v-20h-720v20h16q41 0 60.5 21.5t19.5 41t-10 42.5l-60 135h-379l-61 -141q-8 -18 -8 -37t19.5 -40.5t60.5 -21.5h14v-20h-422zM350 352h299l-149 344z" />
<glyph unicode="b" horiz-adv-x="1282" d="M47 0v20h23q45 0 75.5 31t30.5 76v975q0 45 -30.5 75.5t-75.5 30.5h-23v21h637q352 0 446 -154q39 -63 39 -168.5t-65.5 -171t-157.5 -65.5q127 -6 216 -89t89 -227q0 -180 -149.5 -267t-403.5 -87h-651zM569 94q103 4 166.5 73t63.5 206t-38 206.5t-130 69.5h-4v17 q76 0 103.5 57t27.5 168q0 246 -183 246h-6v-1043z" />
<glyph unicode="c" horiz-adv-x="1368" d="M47 613.5q0 304.5 205 472t575 167.5q260 0 447 -73l-27 -349h-14q-53 180 -144.5 255t-226.5 75q-203 0 -300 -144.5t-97 -394t94 -397.5q94 -152 268 -157q143 0 217 43q80 45 121 139q39 90 76 262h14l54 -328q-122 -208 -482 -208h-3q-362 1 -569.5 167t-207.5 470.5 z" />
<glyph unicode="d" horiz-adv-x="1517" d="M37 1208v21h698q348 0 540.5 -162t192.5 -453.5t-192.5 -452.5t-540.5 -161h-696v20h24q47 0 81 33t34 78v973q-4 45 -36.5 74.5t-80.5 29.5h-24zM580 94h116q164 0 258.5 137.5t94.5 382.5q0 332 -164 461q-80 61 -189 62h-116v-1043z" />
<glyph unicode="e" horiz-adv-x="1177" d="M43 0v20h23q43 0 65 23q41 39 41 84v973q0 47 -31.5 77.5t-74.5 30.5h-23v21h799q51 0 114.5 10t87.5 21v-388h-20v11q0 119 -62.5 184.5t-177.5 67.5h-211v-482h158q90 2 146.5 60.5t56.5 150.5v4h20v-528h-20v8q0 90 -56.5 149.5t-146.5 59.5h-158v-463h197 q123 0 223.5 90t136.5 246h19l-57 -430h-1049z" />
<glyph unicode="f" horiz-adv-x="1110" d="M43 0v20h23q43 0 74.5 31t31.5 76v973q0 47 -31.5 77.5t-74.5 30.5h-23v21h799q51 0 114.5 10t87.5 21v-392h-20v13q0 160 -111 221q-55 31 -133 33h-207v-482h156q92 2 148.5 60.5t56.5 150.5v4h20v-528h-20v8q0 90 -56.5 149.5t-148.5 59.5h-156v-430q2 -63 54 -92 q25 -14 55 -15h20v-20h-659z" />
<glyph unicode="g" horiz-adv-x="1480" d="M49 618q0 299 183.5 467t515.5 168q139 0 294.5 -21.5t231.5 -51.5l-29 -349h-14q-92 330 -379 330q-199 0 -292 -142t-93 -421q0 -530 305 -530q84 0 138.5 48t54.5 115q0 14 -2 31v230q0 39 -22.5 60t-63.5 21h-29v17h625v-17h-25q-88 0 -88 -81v-291 q-63 -86 -245.5 -156t-388.5 -70t-357.5 76t-235.5 221.5t-84 345.5z" />
<glyph unicode="h" horiz-adv-x="1544" d="M43 0v20h23q43 0 74.5 31t31.5 76v975q0 45 -31.5 75.5t-74.5 30.5h-23v21h659v-21h-20q-45 0 -76 -30.5t-33 -75.5v-438h400v438q-2 45 -33 75.5t-76 30.5h-20v21h659v-21h-22q-45 0 -77 -29.5t-32 -76.5v-975q0 -63 53 -92q25 -14 54 -15h22v-20h-657v20h20q45 0 76 31 t33 76v442h-400v-442q2 -45 33 -76t76 -31h20v-20h-659z" />
<glyph unicode="i" horiz-adv-x="743" d="M43 0v20h23q43 0 73.5 31t30.5 76v975q0 45 -30.5 75.5t-73.5 30.5h-23v21h655v-21h-20q-61 0 -90 -51q-14 -25 -17 -55v-975q2 -45 33 -76t74 -31h22v-20h-657z" />
<glyph unicode="j" horiz-adv-x="739" d="M-27 -334q125 59 162 191q29 106 29 254v985q0 47 -33 79.5t-78 32.5h-20l-2 21h667v-21h-22q-43 0 -75 -31.5t-36 -76.5v-996q0 -154 -87 -267t-220 -163q-95 -33 -166 -33q-1 0 -2 1q-72 0 -117 6v18z" />
<glyph unicode="k" horiz-adv-x="1443" d="M45 1210v21h662v-21h-21q-45 0 -76.5 -30.5t-31.5 -77.5v-975q0 -45 31.5 -76t76.5 -31h21v-20h-660v20h21q45 0 75.5 31t32.5 76v977q-2 45 -33.5 75.5t-74.5 30.5h-23zM629 549l407 581q23 31 9.5 56.5t-48.5 25.5h-16v17h418v-17h-8q-106 0 -179 -75l-274 -344 l387 -633q86 -139 186 -144v-16h-211h-22q-317 0 -451 184q-57 78 -127.5 220.5t-70.5 144.5z" />
<glyph unicode="l" horiz-adv-x="1140" d="M43 0v20h23q43 0 74.5 31t31.5 76v975q0 45 -31.5 75.5t-74.5 30.5h-23v21h662v-21h-23q-72 0 -98 -63q-10 -20 -11 -43v-1008h197q123 0 222.5 90t137.5 246h21l-59 -430h-1049z" />
<glyph unicode="m" horiz-adv-x="1748" d="M-39 0v20h27q51 0 88 28t43 79l160 1126h16l610 -768l547 768h18l164 -1136q12 -45 46 -71t79 -26h29v-20h-664v20h29q37 0 53.5 26t14.5 52l-68 459l-283 -395q-31 -43 -53 -100.5t-22 -79v-27.5h-17l-461 573l-55 -430q-2 -20 10 -41q20 -37 58 -37h28v-20h-397z" />
<glyph unicode="n" horiz-adv-x="1595" d="M25 0v20h32q47 0 80 30t33 73v915q0 123 -18 195l-7 22h19l858 -725v576q0 43 -32 72.5t-79 29.5h-34v21h696v-21h-35q-47 0 -80 -28.5t-33 -71.5v-909q0 -133 19 -201l6 -23h-18l-861 723v-575q2 -43 34 -73t79 -30h33v-20h-692z" />
<glyph unicode="o" horiz-adv-x="1595" d="M51 614.5q0 303.5 197.5 471t549 167.5t549 -167.5t197.5 -471t-197.5 -471.5t-549 -168t-549 168t-197.5 471.5zM469 614.5q0 -262.5 84 -404.5t243.5 -142t243.5 142t84 402q0 354 -147 484q-73 65 -177 65h-3q-160 0 -244 -142t-84 -404.5z" />
<glyph unicode="p" horiz-adv-x="1243" d="M43 1208v21h688q293 0 410 -142q71 -87 71 -217q0 -84 -29.5 -161.5t-90.5 -128.5q-106 -90 -229 -90t-234 88v16q74 10 125 113q41 84 41 186q0 152 -95 215q-43 29 -102 29h-25v-1010q2 -47 31 -77t76 -30h20v-20h-655v20h23q43 0 73.5 31t30.5 76v977 q-2 45 -32.5 74.5t-73.5 29.5h-23z" />
<glyph unicode="q" horiz-adv-x="1556" d="M51 614.5q0 303.5 191.5 471t534.5 167.5t534.5 -167.5t191.5 -473.5q0 -295 -182 -460q-88 -82 -217 -127q143 -20 241.5 -54t256.5 -92q220 -80 396 -80q194 0 333 97l12 -7v-14q0 -203 -125 -321q-121 -113 -328 -113q-233 0 -504 158q-133 76 -284 204 q-135 117 -200.5 144.5t-121.5 27.5h-6q-342 0 -532.5 168t-190.5 471.5zM471 613.5q0 -263.5 78 -404.5t228.5 -141t228 141t77.5 403q0 403 -172 512q-59 37 -135 37q-149 0 -227 -142t-78 -405.5z" />
<glyph unicode="r" horiz-adv-x="1388" d="M66 0v20h22q43 0 74 31t31 76v975q0 45 -30 75.5t-73 30.5h-24v21h704q467 0 467 -338q0 -106 -51 -197q-59 -104 -211 -131q72 -18 132 -72.5t79.5 -89t40.5 -77.5q121 -236 190 -281q37 -23 92 -23v-20h-241q-203 0 -264 27q-84 37 -122 83t-73 107q-55 94 -90 268 q-20 92 -68 117v16h11q57 0 100 52.5t55 171.5v12q3 25 3 48q0 60 -20 104q-26 60 -46.5 81t-53.5 31q-35 12 -63 12h-41v-1003q0 -51 34 -79t75 -28h18v-20h-657z" />
<glyph unicode="s" horiz-adv-x="1124" d="M82 182q0 47 8 90q23 109 72 170h12v-18q0 -137 98 -246q99 -108 274 -108h3q104 0 157.5 47t53.5 108.5t-48 108.5t-157 94l-215 100q-131 55 -193 162q-47 82 -47 180q0 33 4 66q45 317 390 317q115 0 309 -18h137l-49 -299h-12q0 100 -73 160.5t-181 60.5 q-209 0 -224 -135q-1 -6 -1 -13q0 -57 51 -91q43 -29 118 -60l265 -121q109 -47 164 -130.5t55 -192.5q0 -225 -162 -338q-143 -100 -397 -101q-152 0 -253.5 34t-140.5 83q-18 43 -18 90z" />
<glyph unicode="t" horiz-adv-x="1255" d="M14 877v385q27 -10 90.5 -20.5t114.5 -10.5h817q53 0 121 10t84 21v-385h-20v10v5q0 154 -111 212q-53 31 -131 31h-152v-1008q0 -45 32 -76t77 -31h20v-20h-657v20h20q43 0 75 31t32 76v1008h-150q-176 -2 -225 -144q-16 -47 -16 -104v-10h-21z" />
<glyph unicode="u" horiz-adv-x="1449" d="M39 1212v17h635v-17h-29q-37 0 -62.5 -24.5t-25.5 -63.5v-667q0 -246 137 -338q68 -45 162 -45q139 0 215 94t78 266v690q-2 39 -27.5 63.5t-62.5 24.5h-27v17h395v-17h-26q-37 0 -63.5 -25.5t-26.5 -62.5v-667q0 -227 -135.5 -354.5t-384.5 -127.5q-635 0 -635 478v671 q0 59 -56 82q-16 6 -34 6h-27z" />
<glyph unicode="v" horiz-adv-x="1269" d="M-86 1208v21h719v-19h-17q-39 0 -58 -23.5t-19 -44t8 -40.5l237 -527l238 527q10 23 10 43t-18.5 42.5t-59.5 22.5h-16v19h420v-21h-17q-100 0 -151 -94l-414 -864q-100 -213 -106 -275h-17l-575 1141q-53 92 -150 92h-14z" />
<glyph unicode="w" horiz-adv-x="1742" d="M-66 1208v21h674v-21h-18q-35 0 -53.5 -21.5t-18.5 -40t4 -34.5l189 -426l297 569h14l352 -589l127 438q4 18 4 38.5t-17.5 43t-55.5 22.5h-15v21h391v-21h-14q-43 0 -84 -20.5t-63 -63.5l-301 -946q-27 -80 -27 -132v-66h-16l-422 712l-275 -520q-49 -96 -49 -192h-16 l-443 1130q-23 51 -64.5 74.5t-84.5 23.5h-15z" />
<glyph unicode="x" horiz-adv-x="1363" d="M-49 0v20h24q90 0 162 86l350 469l-333 549q-27 37 -72 62.5t-92 25.5h-23v21h727v-21h-20q-39 0 -60 -32q-10 -18 -10 -36t10 -34l189 -309l198 309q10 18 10.5 35.5t-15 42t-52.5 24.5h-20v21h442v-21h-25q-100 0 -163 -90l-297 -446l344 -563q27 -39 71.5 -66 t96.5 -27h22v-20h-731v20h21q37 0 53 26t16 43t-10 34l-201 330l-237 -330q-12 -18 -12.5 -35.5t15 -42.5t54.5 -25h20v-20h-452z" />
<glyph unicode="y" horiz-adv-x="1296" d="M-98 1208v21h716v-21h-20q-39 0 -55.5 -25.5t-16.5 -44t11 -34.5l254 -430l247 430q10 16 10.5 33.5t-17 44t-54.5 26.5h-23v21h447v-21h-27q-53 0 -99 -27.5t-75 -68.5l-346 -541v-444q2 -45 34 -76t79 -31h22v-20h-672v20h25q45 0 78 31t33 76v442l-353 543 q-39 57 -89 76.5t-85 19.5h-24z" />
<glyph unicode="z" horiz-adv-x="1241" d="M51 0v16l617 1121h-324q-117 0 -181.5 -66.5t-64.5 -185.5v-8h-20v385q25 -10 93.5 -20.5t123.5 -10.5h692q76 0 130 8t65 14v-14l-594 -1147h221q139 0 245.5 90t149.5 248h21l-74 -430h-1100z" />
<glyph unicode="{" horiz-adv-x="833" d="M174 643v21q72 2 88 32q4 8 4 27.5t-9 67t-26.5 131.5t-17.5 158.5t33 152.5q76 170 282 233q113 35 260 35h3l4 -16q-104 -27 -133 -96q-29 -68 -29 -162v-129q0 -188 -33 -271q-27 -70 -48.5 -89t-34.5 -29.5t-37.5 -20.5t-40 -14t-45 -12.5t-44.5 -14.5 q137 -39 178 -78q57 -57 74 -108q31 -109 31 -236l-12 -223q0 -72 14 -102q31 -66 119 -88l-4 -17q-410 0 -510 266q-27 74 -27 157t23.5 195.5t23.5 143.5t-4 41q-14 39 -82 45z" />
<glyph unicode="|" horiz-adv-x="542" d="M205 -369v1803h133v-1803h-133z" />
<glyph unicode="}" horiz-adv-x="833" d="M41 1485l4 16q299 0 442 -131q135 -123 136 -303q0 -61 -19 -145q-35 -176 -35 -196.5t4 -29.5q14 -31 89 -32v-21q-68 -6 -82 -45q-4 -8 -4.5 -39t23.5 -144.5t24 -196.5t-28 -155.5t-87 -136.5q-127 -131 -422 -131l-4 17q88 23 117 84q16 35 16 106l-14 223 q0 211 63 295q25 31 43.5 48.5t54.5 35.5q45 20 123 43q-16 6 -45.5 14.5t-44 12.5t-40 14t-38 20.5t-32 28t-29.5 39t-22.5 52t-18.5 69.5q-14 92 -14 201l2 129q0 86 -8.5 110.5t-20.5 52t-29 42.5q-45 37 -104 53z" />
<glyph unicode="~" horiz-adv-x="1011" d="M55 518q0 88 47 146q72 90 189 90q49 0 113.5 -31t113.5 -70q139 -102 198.5 -102t92.5 47q16 25 16 60.5t-20 84.5h139q14 -55 14 -90t-8 -75.5t-47 -81.5q-76 -78 -194 -78q-80 0 -183 69q-45 29 -86 60q-104 74 -157.5 74t-79.5 -46q-14 -27 -14.5 -64.5t10.5 -82.5 h-133q-10 47 -11 90z" />
<glyph unicode="&#xa1;" horiz-adv-x="604" d="M92 0l47 694l92 273h144l92 -273l45 -694h-420zM123 1281q0 77 53 131t130 54t131.5 -54t54.5 -131t-54.5 -130t-131.5 -53t-130 53t-53 130z" />
<glyph unicode="&#xa2;" horiz-adv-x="1183" d="M31 713q0 274 207 417q190 133 491 134h10l15 172l96 -2l-14 -174q164 -14 274 -60l-23 -301h-12q-70 238 -246 270l-75 -921q113 4 157.5 32.5t67 54t41.5 71.5q33 74 61 217h13l47 -283q-102 -174 -396 -180l-14 -178l-94 6l14 174q-291 18 -455.5 162.5t-164.5 388.5z M414 719q-3 -404 245 -463l74 918q-322 -12 -319 -455z" />
<glyph unicode="&#xa3;" horiz-adv-x="1269" d="M61 0q115 225 148 420q16 109 20 233h-168l37 115h131v25q0 637 566 669q31 2 102.5 2t168.5 -29.5t144 -88.5l-98 -291h-20q-6 162 -56.5 233.5t-156.5 71.5q-213 0 -230 -281q-4 -63 -4 -140t4 -171h371l-43 -115h-324q-2 -248 -82 -358q-70 -96 -196 -133q23 6 44 6 t49 -1t56.5 -5t81.5 -12q92 -12 145.5 -12.5t116 11t133.5 46.5q150 74 240 254h21l-93 -400q-94 -43 -210.5 -56t-172.5 -13q-96 0 -258.5 34.5t-201.5 34.5t-60.5 -1t-95.5 -26.5t-88 -41.5h-21v20z" />
<glyph unicode="&#xa4;" horiz-adv-x="1107" d="M102 315l121 119q-109 123 -108.5 288t110.5 288l-123 123l43 43l123 -123q123 104 285 104t285 -106l125 125l45 -43l-127 -125q106 -123 106 -286t-104 -284l125 -123l-45 -45l-123 125q-123 -111 -287 -110.5t-287 106.5l-121 -121zM176 721q0 -156 110.5 -265.5 t265.5 -109.5t264.5 109.5t109.5 265.5t-109.5 265.5t-264.5 109.5t-265.5 -109.5t-110.5 -265.5z" />
<glyph unicode="&#xa5;" horiz-adv-x="1492" d="M-92 1413v21h790v-21h-24q-45 0 -70 -41q-14 -23 -14 -44t12 -42l281 -506l291 506q12 20 12 41t-15 43q-27 43 -69 43h-25v21h510v-21h-28q-61 0 -118 -35t-89 -86l-269 -422h193v-102h-258l-68 -109v-14h326v-102h-326v-393q0 -53 38 -91.5t93 -38.5h25v-20h-733v20h26 q53 0 91 37t40 90v396h-331v102h331v14l-67 109h-264v102h202l-262 426q-51 80 -141 107q-31 10 -61 10h-29z" />
<glyph unicode="&#xa6;" horiz-adv-x="542" d="M205 348h133v-717h-133v717zM205 717v717h133v-717h-133z" />
<glyph unicode="&#xa7;" horiz-adv-x="1097" d="M53 817q0 299 228 502q164 147 397 147q172 0 266 -77q55 -49 55 -93.5t-28 -85.5q-41 -66 -97 -65q-35 0 -86 38t-83 70q-68 70 -134 88q-8 2 -23.5 2t-42 -19t-26.5 -49t15.5 -61.5t41 -66.5t62.5 -75t68.5 -72.5t68.5 -67.5q152 -154 226 -316q88 -195 88 -360 q0 -231 -134 -389q-76 -88 -195.5 -140.5t-251.5 -52.5t-228 37q-150 57 -150 156q0 31 19 67q45 74 104 74q39 0 96.5 -39t93.5 -73q78 -72 148 -91q8 -2 24.5 -2t43 21.5t26.5 52.5t-40 86t-155.5 167t-152.5 149q-106 104 -166 223q-78 152 -78 315zM244 958 q0 -78 59 -190q33 -66 92.5 -128t116.5 -120.5t92 -96.5t86 -103.5t76 -116.5q47 -98 47 -193q0 -27 -4 -53q47 96 47 201q0 162 -197 383q-29 31 -88 94t-87.5 96t-69.5 84t-58 84q-47 100 -53 162.5t-6 94.5v38q-53 -117 -53 -236z" />
<glyph unicode="&#xa8;" d="M156 1514.5q0 62.5 44 106.5t106.5 44t106.5 -44t44 -106.5t-44 -107.5t-106.5 -45t-106.5 45t-44 107.5zM692 1514.5q0 62.5 44 106.5t106.5 44t106.5 -44t44 -106.5t-44 -107.5t-106.5 -45t-106.5 45t-44 107.5z" />
<glyph unicode="&#xa9;" horiz-adv-x="1736" d="M123 717q0 309 218 527t527.5 218t527.5 -218t218 -527t-218 -527.5t-527.5 -218.5t-527.5 218.5t-218 527.5zM229 717q0 -264 187.5 -451.5t452 -187.5t451.5 187.5t187 451.5t-187 451.5t-451.5 187.5t-452 -187.5t-187.5 -451.5zM379 717.5q0 195.5 145.5 326 t368.5 130.5q94 0 196.5 -24t174.5 -65l-13 -245h-12q-106 250 -334 250q-117 0 -182.5 -98.5t-65.5 -273.5t67 -273.5t196 -98.5t217 83t112 239h13l47 -222q-160 -186 -420 -186q-221 2 -365.5 132t-144.5 325.5z" />
<glyph unicode="&#xaa;" horiz-adv-x="798" d="M-10 772v8h8q53 0 84 47l235 473q57 129 62 154h8l332 -627q33 -47 82 -47h8v-8h-420v8h10q20 0 33.5 14.5t7.5 36.5l-32 68h-205l-31 -61q-12 -25 2 -41.5t37 -16.5h10v-8h-231zM227 952h154l-76 158z" />
<glyph unicode="&#xab;" horiz-adv-x="1107" d="M82 598l461 406l16 -11l-160 -395l162 -403l-18 -15zM508 598l461 406l16 -11l-160 -395l162 -403l-18 -15z" />
<glyph unicode="&#xac;" d="M82 700v134h1069v-435h-133v301h-936z" />
<glyph unicode="&#xad;" horiz-adv-x="778" d="M61 598l21 82h614l21 -82l-21 -84h-614z" />
<glyph unicode="&#xae;" horiz-adv-x="501" d="M20 1204q0 96 68 164t164 68t163.5 -68t67.5 -164t-67.5 -163.5t-163.5 -67.5t-164 67.5t-68 163.5zM70 1204q0 -78 51 -130t130 -52t131 52t52 130t-52 130t-131 52t-130 -52t-51 -130zM129 1085v5h4q20 0 23 20v195q-2 23 -23 22h-4v4h90h39q61 0 82 -39q8 -12 8 -28 q0 -59 -63 -68q23 -4 52.5 -51t51.5 -55v-5h-39q-33 0 -45 9.5t-18 12.5t-13.5 16.5t-9.5 16.5t-10 19q-18 45 -25 45v4h21q35 2 33 53.5t-43 49.5h-21v-199q0 -23 21 -22h6v-5h-117z" />
<glyph unicode="&#xaf;" d="M307 1440v174h594v-174h-594z" />
<glyph unicode="&#xb0;" horiz-adv-x="485" d="M41 1159q0 84 59.5 142.5t142.5 58.5t142 -58.5t59 -142.5t-59 -143.5t-142 -59.5t-142.5 59.5t-59.5 143.5zM160 1159q0 -35 24.5 -58.5t58 -23.5t58.5 23.5t25 58.5t-25 58.5t-58.5 23.5t-58 -23.5t-24.5 -58.5z" />
<glyph unicode="&#xb1;" horiz-adv-x="985" d="M82 102v134h823v-134h-823zM82 711v133h344v346h133v-346h346v-133h-346v-344h-133v344h-344z" />
<glyph unicode="&#xb2;" horiz-adv-x="858" d="M61 1380q111 92 334 93q209 0 303 -107q47 -51 47 -117.5t-31.5 -125t-82.5 -103.5q-96 -86 -197 -131h191q104 0 161 127h11l-84 -385h-635v10q25 35 73 98.5t73.5 99t64.5 91t60.5 94.5t43.5 86q41 88 41 160.5t-33 104.5t-82 32q-145 0 -145 -262h-12z" />
<glyph unicode="&#xb3;" horiz-adv-x="763" d="M41 1384q102 78 303 78q264 0 311 -139q10 -29 11 -59q0 -74 -42 -112t-104 -40q182 -39 182 -221q0 -106 -65 -180q-104 -117 -303 -117q-156 0 -279 68l2 10h15q135 0 232 62.5t97 168t-61 151.5t-135 48l2 10h10q70 0 117 52.5t47 115.5q0 78 -49 104q-29 16 -53 17 q-94 0 -123 -66q-23 -51 -23 -155v-23h-10z" />
<glyph unicode="&#xb4;" d="M418 1536q39 90 133 197.5t182 183.5q131 -55 176 -205q-102 -68 -236.5 -123t-240.5 -67z" />
<glyph unicode="&#xb6;" horiz-adv-x="1105" d="M102 1057q0 170 116 273.5t286 103.5h373h14h18t17.5 1t21.5 4t21.5 6t25 10t23.5 15q25 16 53 52l14 -13q-14 -86 -102 -143q-45 -29 -98 -33v-1032q0 -113 -38 -198t-102 -130l-18 17q51 86 53 184q2 31 2 123v1034h-170v-1331q0 -186 -88 -305q-49 -68 -129 -103 l-14 19q84 86 104.5 154.5t20.5 138t-2 96.5v682q-174 0 -288 102.5t-114 272.5z" />
<glyph unicode="&#xb7;" horiz-adv-x="512" d="M72 727q0 76 54 130t130 54t130 -54t54 -130t-54 -130t-130 -54t-130 54t-54 130z" />
<glyph unicode="&#xb8;" d="M438 -401l2 20q76 0 144.5 42t68.5 124q0 33 -32 57q-33 23 -80 23t-86 -12l-11 20l99 129h127l-88 -100q29 10 49 10h41.5t62.5 -11.5t65.5 -42t24.5 -55.5q0 -94 -65 -149q-84 -74 -205 -74q-55 0 -117 19z" />
<glyph unicode="&#xb9;" horiz-adv-x="598" d="M61 1382v11q66 2 192 21.5t189 49.5h11v-762q0 -25 18 -42t43 -17h23v-12h-467v12h22q27 0 44.5 17.5t17.5 41.5v592q0 35 -14.5 61.5t-69.5 26.5h-9z" />
<glyph unicode="&#xba;" horiz-adv-x="819" d="M41 1113q0 165 94 253t274.5 88t274.5 -88t94 -253t-94 -253t-274.5 -88t-274.5 88t-94 253zM287 1113q0 -288 123 -288q63 0 91.5 72t28.5 179.5t-6 159.5t-20 89q-29 76 -94 76q-123 0 -123 -288z" />
<glyph unicode="&#xbb;" horiz-adv-x="1107" d="M123 195l162 403l-160 395l16 11l461 -406l-461 -418zM549 195l162 403l-160 395l16 11l461 -406l-461 -418z" />
<glyph unicode="&#xbc;" horiz-adv-x="1574" d="M41 1382v11q66 2 191.5 21.5t189.5 49.5h10v-762q0 -25 18.5 -42t43.5 -17h24v-12h-469v12h23q27 0 44 17.5t17 41.5v592q0 88 -84 88h-8zM244 23l979 1458l96 -66l-977 -1456zM674 188v13l680 635h12v-500h53q59 0 84 57h13l-43 -205h-107v-110q0 -27 20.5 -46.5 t47.5 -19.5h14v-12h-459v12h15q27 0 47 18.5t20 45.5v112h-397zM918 338h153v135z" />
<glyph unicode="&#xbd;" horiz-adv-x="1740" d="M41 1382v11q66 2 191.5 21.5t189.5 49.5h10v-762q0 -25 18.5 -42t43.5 -17h22v-12h-467v12h23q27 0 44 17.5t17 41.5v592q0 88 -84 88h-8zM199 23l979 1458l96 -66l-977 -1456zM924 750q111 94 333 94q150 0 250.5 -62.5t100.5 -169.5q0 -160 -215 -301q-49 -31 -97 -53 h191q104 0 162 127h10l-84 -385h-635v10q25 33 84 113t86 116.5t71 104.5t64 109q51 115 51 187.5t-33.5 105t-80.5 32.5q-145 0 -148 -264h-10z" />
<glyph unicode="&#xbe;" horiz-adv-x="1718" d="M51 1384q102 78 281.5 78t260.5 -51t81 -136t-42 -123t-102 -40q182 -39 183 -221q0 -106 -66 -180q-106 -117 -305 -117q-154 0 -276 68l2 10h14q135 0 232.5 62.5t97.5 168t-61.5 151.5t-135.5 48l2 10h8q72 0 118 52.5t46 115.5q0 78 -47 104q-31 16 -53 17 q-94 0 -125 -66q-20 -51 -21 -155v-23h-12zM385 23l979 1458l96 -66l-977 -1456zM838 188v13l680 637h12v-500h53q59 0 84 55h12l-43 -205h-106v-110q0 -37 35 -58q14 -8 32 -8h15v-12h-459v12h14q27 0 46.5 18.5t21.5 45.5v112h-397zM1081 338h154v135z" />
<glyph unicode="&#xbf;" horiz-adv-x="1071" d="M61 334q0 119 67 203t234 206q106 78 119 121q16 55 -14 117l18 12q133 -35 185 -135q23 -43 22.5 -74.5t-3.5 -60.5t-25.5 -67t-49 -66.5t-53.5 -61.5q-59 -73 -59 -198q0 -256 186 -256q199 0 199 315h20l103 -235q-47 -82 -167 -132.5t-286 -50.5q-240 0 -368 94.5 t-128 268.5zM365 1278q0 76 53 130t130 54t131 -54t54 -130t-54 -130t-131 -54t-130 54t-53 130z" />
<glyph unicode="&#xc0;" horiz-adv-x="1474" d="M-82 0v20h19q47 0 93 28t76 83l478 1047q109 229 116 305h19l649 -1350q66 -113 172 -113h16v-20h-776v20h19q45 0 67.5 28t22.5 51.5t-10 50.5l-80 190h-439l-81 -190q-10 -27 -10.5 -43.5t7 -36t31 -35t49.5 -15.5h19v-20h-457zM279 1755q43 150 174 205 q88 -76 183 -183.5t134 -197.5l-14 -14q-109 12 -242 67.5t-235 122.5zM406 442h350l-172 410z" />
<glyph unicode="&#xc1;" horiz-adv-x="1474" d="M-82 0v20h19q47 0 93 28t76 83l478 1047q109 229 116 305h19l649 -1350q66 -113 172 -113h16v-20h-776v20h19q45 0 67.5 28t22.5 51.5t-10 50.5l-80 190h-439l-81 -190q-10 -27 -10.5 -43.5t7 -36t31 -35t49.5 -15.5h19v-20h-457zM406 442h350l-172 410zM666 1573 q39 90 133 197.5t184 183.5q131 -55 174 -205q-102 -68 -235 -123t-242 -67z" />
<glyph unicode="&#xc2;" horiz-adv-x="1474" d="M-82 0v20h19q47 0 93 28t76 83l478 1047q109 229 116 305h19l649 -1350q66 -113 172 -113h16v-20h-776v20h19q45 0 67.5 28t22.5 51.5t-10 50.5l-80 190h-439l-81 -190q-10 -27 -10.5 -43.5t7 -36t31 -35t49.5 -15.5h19v-20h-457zM354 1548l346 361h23l367 -361l-15 -16 l-364 133l-342 -133zM406 442h350l-172 410z" />
<glyph unicode="&#xc3;" horiz-adv-x="1474" d="M-82 0v20h19q47 0 93 28t76 83l478 1047q109 229 116 305h19l649 -1350q66 -113 172 -113h16v-20h-776v20h19q45 0 67.5 28t22.5 51.5t-10 50.5l-80 190h-439l-81 -190q-12 -27 -12.5 -50.5t22 -51.5t67.5 -28h19v-20h-457zM348 1630q0 123 92 211q63 61 140 61.5 t188 -55t203 -55.5q31 0 81 29.5t62 60.5h25q12 -35 12 -75t-16 -78q-45 -102 -125 -140q-49 -25 -114 -24.5t-165 51.5q-102 51 -138 56t-66.5 5t-80 -32.5t-65.5 -73.5h-25q-8 29 -8 59zM406 442h350l-172 410z" />
<glyph unicode="&#xc4;" horiz-adv-x="1474" d="M-82 0v20h19q47 0 93 28t76 83l478 1047q109 229 116 305h19l649 -1350q66 -113 172 -113h16v-20h-776v20h19q45 0 67.5 28t22.5 51.5t-10 50.5l-80 190h-439l-81 -190q-10 -27 -10.5 -43.5t7 -36t31 -35t49.5 -15.5h19v-20h-457zM287 1698.5q0 62.5 44 106.5t106.5 44 t107.5 -44t45 -106.5t-45 -107.5t-107.5 -45t-106.5 45t-44 107.5zM406 442h350l-172 410zM825 1698.5q0 62.5 44 106.5t106.5 44t106.5 -44t44 -106.5t-44 -107.5t-106.5 -45t-106.5 45t-44 107.5z" />
<glyph unicode="&#xc5;" horiz-adv-x="1474" d="M-82 0v20h19q51 0 100 32t80 98l467 1007q82 170 108 264q-78 4 -130 47t-52 107.5t58.5 107.5t143.5 43t143 -42t58 -105t-50 -106t-124 -52l621 -1271q63 -130 180 -130h16v-20h-776v20h19q45 0 66.5 28t21.5 51.5t-8 47.5l-84 193h-430l-89 -195q-8 -25 -8 -47 t21.5 -50t66.5 -28h19v-20h-457zM410 442h342l-168 394zM625 1588q0 -32 4 -48t11 -29.5t19 -23.5q20 -20 55.5 -20.5t61 30.5t25.5 77t-25.5 76.5t-62.5 30.5h-2h-2q-35 0 -59.5 -30.5t-24.5 -62.5z" />
<glyph unicode="&#xc6;" horiz-adv-x="2082" d="M-68 0v20h19q88 0 176 125l801 1168q16 27 16 43q0 57 -59 57h-11v21h807q90 0 158 14t86 22v-421h-20v16q2 164 -117 229q-57 33 -139 35h-275v-577h209q94 4 154.5 66.5t60.5 156.5v10h21v-569h-21v10q0 94 -59.5 156.5t-151.5 66.5h-213v-545h232q150 0 263 98.5 t161 272.5h20l-78 -475h-1141l3 20h18q41 0 70.5 29t31.5 70v530h-321l-309 -499q-35 -59 0 -97q33 -33 77 -33h19v-20h-488zM696 752h258v413z" />
<glyph unicode="&#xc7;" horiz-adv-x="1624" d="M72 719q0 231 106.5 399t308 256t494.5 88t514 -94l-20 -391h-19q-59 207 -172 295t-280 88q-227 0 -354.5 -168t-127.5 -468t118 -472t327 -178q242 0 350 114q102 106 160 410h16l49 -373q-151 -254 -575 -254h-25l-76 -88q29 10 49.5 10.5t41 0.5t62.5 -11.5t66.5 -42 t24.5 -55.5q0 -94 -66 -150q-86 -72 -204 -71q-57 0 -117 16l2 21q74 0 143.5 42t69.5 124q0 33 -35 57q-61 43 -166 10l-10 21l96 122q-354 35 -552.5 227.5t-198.5 514.5z" />
<glyph unicode="&#xc8;" horiz-adv-x="1366" d="M61 0v20h27q53 0 91 38t40 92v1134q-2 76 -65 113q-31 16 -66 16h-27v21h908q88 0 156.5 14t86.5 22v-421h-20v16q0 164 -119 229q-57 33 -137 35h-297v-571h223q98 2 159.5 64.5t61.5 160.5v8h21v-569h-21v10q0 96 -61 158.5t-158 64.5h-225v-551h252q150 0 264.5 98.5 t161.5 272.5h20l-77 -475h-1199zM319 1755q49 150 183 205q84 -76 175 -183.5t128 -197.5l-14 -14q-109 12 -240 67.5t-232 122.5z" />
<glyph unicode="&#xc9;" horiz-adv-x="1366" d="M61 0v20h27q53 0 91 38t40 92v1134q-2 53 -40 91t-91 38h-27v21h908q63 0 138 12t105 24v-421h-20v16q0 164 -119 229q-57 33 -137 35h-297v-571h223q98 2 159.5 64.5t61.5 160.5v8h21v-569h-21v10q0 96 -61 158.5t-158 64.5h-225v-551h252q150 0 264.5 98.5t161.5 272.5 h20l-77 -475h-1199zM645 1573q39 90 134 197.5t184 183.5q131 -55 174 -205q-102 -68 -235.5 -123t-242.5 -67z" />
<glyph unicode="&#xca;" horiz-adv-x="1366" d="M61 0v20h27q53 0 91 38t40 92v1134q-2 53 -40 91t-91 38h-27v21h908q63 0 138 12t105 24v-421h-20v16q0 164 -119 229q-57 33 -137 35h-297v-571h223q98 2 159.5 64.5t61.5 160.5v8h21v-569h-21v10q0 96 -61 158.5t-158 64.5h-225v-551h252q150 0 264.5 98.5t161.5 272.5 h20l-77 -475h-1199zM334 1548l346 361h25l364 -361l-14 -16l-365 133l-342 -133z" />
<glyph unicode="&#xcb;" horiz-adv-x="1366" d="M61 0v20h27q53 0 91 38t40 92v1134q-2 53 -40 91t-91 38h-27v21h908q88 0 156.5 14t86.5 22v-421h-20v16q0 164 -119 229q-57 33 -137 35h-297v-571h223q98 2 159.5 64.5t61.5 160.5v8h21v-569h-21v10q0 96 -61 158.5t-158 64.5h-225v-551h252q150 0 264.5 98.5 t161.5 272.5h20l-77 -475h-1199zM268 1698.5q0 62.5 44 106.5t106.5 44t106.5 -44t44 -106.5t-44 -107.5t-106.5 -45t-106.5 45t-44 107.5zM805 1698.5q0 62.5 44 106.5t106.5 44t106.5 -44t44 -106.5t-44 -107.5t-106.5 -45t-106.5 45t-44 107.5z" />
<glyph unicode="&#xcc;" horiz-adv-x="856" d="M10 1755q43 150 174 205q90 -76 184.5 -183.5t133.5 -197.5l-15 -14q-109 12 -241.5 67.5t-235.5 122.5zM61 0v20h27q53 0 91 38t40 92v1136q-2 53 -40 90t-91 37h-27v21h736v-21h-27q-53 0 -91 -37t-40 -90v-1136q0 -53 39 -91.5t92 -38.5h27v-20h-736z" />
<glyph unicode="&#xcd;" horiz-adv-x="856" d="M61 0v20h27q53 0 91 38t40 92v1136q-2 53 -40 90t-91 37h-27v21h736v-21h-27q-53 0 -91 -37t-40 -90v-1136q0 -53 39 -91.5t92 -38.5h27v-20h-736zM377 1573q59 139 256 323q33 31 61 58q131 -55 174 -205q-102 -68 -235 -123t-242 -67z" />
<glyph unicode="&#xce;" horiz-adv-x="856" d="M61 0v20h27q53 0 91 38t40 92v1136q-2 53 -40 90t-91 37h-27v21h736v-21h-27q-53 0 -91 -37t-40 -90v-1136q0 -53 39 -91.5t92 -38.5h27v-20h-736zM66 1548l346 361h24l365 -361l-15 -16l-364 133l-342 -133z" />
<glyph unicode="&#xcf;" horiz-adv-x="856" d="M0 1698.5q0 62.5 44 106.5t106.5 44t106.5 -44t44 -106.5t-44 -107.5t-106.5 -45t-106.5 45t-44 107.5zM61 0v20h27q53 0 91 38t40 92v1136q-2 53 -40 90t-91 37h-27v21h736v-21h-27q-53 0 -91 -37t-40 -90v-1136q0 -53 39 -91.5t92 -38.5h27v-20h-736zM537 1698.5 q0 62.5 45 106.5t107.5 44t106.5 -44t44 -106.5t-44 -107.5t-106.5 -45t-107.5 45t-45 107.5z" />
<glyph unicode="&#xd0;" horiz-adv-x="1724" d="M61 0v20h27q53 0 91 38t40 92v516h-158v102h158v528q0 49 -40 83t-91 34h-25l-2 21h777q385 0 601 -189.5t216 -527.5t-216 -527.5t-601 -189.5h-777zM639 102h158q193 0 305 163t112 452t-112.5 451.5t-304.5 162.5h-158v-563h221v-102h-221v-564z" />
<glyph unicode="&#xd1;" horiz-adv-x="1804" d="M41 0v20h39q51 0 88 36t37 89v1063q0 143 -21 228l-6 28h21l981 -872v696q-2 53 -39 89t-88 36h-39v21h749v-21h-37q-51 0 -87.5 -36t-39.5 -87v-1057q0 -152 21 -233l6 -29h-18l-981 873v-699q0 -74 63 -108q29 -16 62 -17h39v-20h-750zM477 1630q0 123 92 211 q63 61 140 61.5t188 -55t203 -55.5q31 0 81 29.5t62 60.5h25q12 -35 12 -75t-16 -78q-45 -102 -125 -140q-49 -25 -113.5 -24.5t-165.5 51.5q-102 51 -138 56t-66.5 5t-80 -32.5t-65.5 -73.5h-25q-8 29 -8 59z" />
<glyph unicode="&#xd2;" horiz-adv-x="1853" d="M72 717q0 350 226.5 547.5t623.5 197.5q264 0 455.5 -88t294 -257t102.5 -400q0 -350 -226.5 -548t-625 -198t-624.5 198t-226 548zM485 1784q45 150 177 205q125 -109 206.5 -214.5t108.5 -166.5l-14 -15q-147 18 -330 107q-80 39 -148 84zM514 717q0 -412 186 -567 q93 -76 222 -76q197 0 303 169t106 474q0 412 -186 567q-92 76 -223 76q-197 0 -302.5 -169t-105.5 -474z" />
<glyph unicode="&#xd3;" horiz-adv-x="1853" d="M72 717q0 350 226.5 547.5t623.5 197.5q264 0 455.5 -88t294 -257t102.5 -400q0 -350 -226.5 -548t-625 -198t-624.5 198t-226 548zM524 717q0 -303 105.5 -473t293 -170t293 170t105.5 473t-105.5 473t-293 170t-293 -170t-105.5 -473zM872 1602q39 90 134.5 197.5 t183.5 182.5q131 -55 174 -204q-102 -68 -235 -123.5t-242 -67.5z" />
<glyph unicode="&#xd4;" horiz-adv-x="1853" d="M72 717q0 350 226.5 547.5t623.5 197.5q264 0 455.5 -88t294 -257t102.5 -400q0 -350 -227.5 -548t-625 -198t-623.5 198t-226 548zM524 717q0 -303 105.5 -473t293 -170t293 170t105.5 473t-105.5 473t-293 170t-293 -170t-105.5 -473zM561 1577l346 360h25l366 -360 l-16 -16l-362 133l-345 -133z" />
<glyph unicode="&#xd5;" horiz-adv-x="1853" d="M72 717q0 350 226 547.5t623.5 197.5t625 -197.5t227.5 -547.5t-227.5 -548t-625 -198t-623.5 198t-226 548zM524 717q0 -303 105.5 -473t293 -170t293 170t105.5 473t-105.5 473t-293 170t-293 -170t-105.5 -473zM557 1659q0 123 90 211q63 61 140 61t188.5 -55 t204.5 -55q29 0 79 29.5t62 60.5h27q12 -35 12 -75t-19 -79q-43 -102 -124 -139q-49 -25 -105.5 -25t-112.5 23q-53 23 -110.5 51.5t-91 33.5t-63 5t-79 -33t-65.5 -74h-27q-6 29 -6 60z" />
<glyph unicode="&#xd6;" horiz-adv-x="1853" d="M72 717q0 350 226.5 547.5t623.5 197.5q264 0 455.5 -88t294 -257t102.5 -400q0 -350 -227.5 -548t-625 -198t-623.5 198t-226 548zM496 1727.5q0 62.5 44 106.5t106.5 44t106.5 -44t44 -106.5t-44 -107.5t-106.5 -45t-106.5 45t-44 107.5zM524 717q0 -303 105.5 -473 t293 -170t293 170t105.5 473t-105.5 473t-293 170t-293 -170t-105.5 -473zM1032 1727.5q0 62.5 45 106.5t107.5 44t106.5 -44t44 -106.5t-44 -107.5t-106.5 -45t-107.5 45t-45 107.5z" />
<glyph unicode="&#xd7;" horiz-adv-x="839" d="M82 391l244 244l-244 244l94 94l244 -244l244 244l94 -94l-244 -244l244 -244l-94 -94l-244 244l-244 -244z" />
<glyph unicode="&#xd8;" horiz-adv-x="1853" d="M72 705.5q0 361.5 226 559t624 197.5q266 0 458 -90l99 115l90 -70l-88 -102q293 -197 293 -598q0 -350 -227.5 -548t-624.5 -198q-293 0 -498 111l-111 -129l-90 74l103 118q-254 199 -254 560.5zM514 717q0 -176 37 -309l674 784q-106 168 -303 168t-302.5 -169 t-105.5 -474zM596 283q106 -209 314 -209t314.5 169t106.5 474q0 213 -53 362z" />
<glyph unicode="&#xd9;" horiz-adv-x="1730" d="M61 1413v21h703v-21h-33q-45 0 -75.5 -27.5t-32.5 -70.5v-783q0 -215 98 -335.5t274 -120.5t275.5 113.5t99.5 316.5v809q-2 43 -32.5 70.5t-75.5 27.5h-33v21h461v-21h-33q-43 0 -75 -27.5t-34 -68.5v-791q0 -260 -160.5 -407.5t-453.5 -147.5q-367 0 -549 143.5 t-182 409.5v787q0 61 -53 90q-25 12 -56 12h-33zM553 1755q43 150 174 205q88 -76 183 -183.5t134 -197.5l-14 -14q-109 12 -242 67.5t-235 122.5z" />
<glyph unicode="&#xda;" horiz-adv-x="1730" d="M61 1413v21h703v-21h-33q-45 0 -75.5 -27.5t-32.5 -70.5v-783q0 -215 98 -335.5t274 -120.5t275.5 113.5t99.5 316.5v809q-2 68 -65 90q-20 8 -43 8h-33v21h461v-21h-33q-43 0 -75 -27.5t-34 -68.5v-791q0 -260 -160.5 -407.5t-453.5 -147.5q-367 0 -549 143.5 t-182 409.5v787q0 61 -53 90q-25 12 -56 12h-33zM940 1573q39 90 134 197.5t183 183.5q131 -55 175 -205q-102 -68 -235.5 -123t-242.5 -67z" />
<glyph unicode="&#xdb;" horiz-adv-x="1730" d="M61 1413v21h703v-21h-33q-45 0 -75.5 -27.5t-32.5 -70.5v-783q0 -215 98 -335.5t274 -120.5t275.5 113.5t99.5 316.5v809q-2 43 -32.5 70.5t-75.5 27.5h-33v21h461v-21h-33q-43 0 -75 -27.5t-34 -68.5v-791q0 -260 -160.5 -407.5t-453.5 -147.5q-367 0 -549 143.5 t-182 409.5v787q0 61 -53 90q-25 12 -56 12h-33zM629 1548l346 361h24l365 -361l-14 -16l-365 133l-342 -133z" />
<glyph unicode="&#xdc;" horiz-adv-x="1730" d="M61 1413v21h703v-21h-33q-45 0 -75.5 -27.5t-32.5 -70.5v-783q0 -215 98 -335.5t274 -120.5t275.5 113.5t99.5 316.5v809q-2 43 -32.5 70.5t-75.5 27.5h-33v21h461v-21h-33q-43 0 -75 -27.5t-34 -68.5v-791q0 -260 -160.5 -407.5t-453.5 -147.5q-367 0 -549 143.5 t-182 409.5v787q0 61 -53 90q-25 12 -56 12h-33zM561 1698.5q0 62.5 45 106.5t107.5 44t106.5 -44t44 -106.5t-44 -107.5t-106.5 -45t-107.5 45t-45 107.5zM1100 1698.5q0 62.5 44 106.5t106.5 44t106.5 -44t44 -106.5t-44 -107.5t-106.5 -45t-106.5 45t-44 107.5z" />
<glyph unicode="&#xdd;" horiz-adv-x="1492" d="M-92 1413v21h790v-21h-24q-45 0 -70 -41q-12 -23 -12 -44t10 -42l281 -506l291 506q12 20 12 42t-15 42q-27 43 -69 43h-25v21h510v-21h-28q-61 0 -118 -35t-89 -86l-402 -633v-509q0 -53 38 -91.5t93 -38.5h25v-20h-733v20h26q53 0 91 37t40 90v512l-391 637 q-31 49 -87 83t-115 34h-29zM842 1573q39 90 134 197.5t183 183.5q131 -55 174 -205q-102 -68 -235 -123t-242 -67z" />
<glyph unicode="&#xde;" horiz-adv-x="1447" d="M88 0v20h25q55 0 93 38t40 92v1136q-2 53 -40 90t-91 37h-27v21h733v-21h-24q-53 0 -92 -37t-39 -90v-143h186q340 0 479 -162q88 -102 88 -258q0 -94 -38 -182t-109 -148q-129 -104 -275 -104q-147 0 -278 94v20q74 12 111.5 40t60.5 51q51 55 68.5 128.5t17.5 104.5 q0 162 -69.5 237.5t-186.5 75.5h-55v-890q0 -76 65 -113q29 -16 66 -17h24v-20h-733z" />
<glyph unicode="&#xdf;" horiz-adv-x="2248" d="M82 182q0 47 8 90q23 109 72 170h12v-18q0 -137 98 -246q100 -109 277 -108q104 0 157.5 47t53.5 108.5t-48 108.5t-157 94l-215 100q-131 55 -193 162q-47 82 -47 180q0 33 4 66q45 317 390 317q115 0 309 -18h137l-49 -299h-12q0 100 -73 160.5t-181 60.5 q-209 0 -224 -135q-6 -66 50 -104q43 -29 118 -60l265 -121q109 -47 164 -130.5t55 -192.5q0 -225 -162 -338q-143 -100 -397 -101q-152 0 -253.5 34t-140.5 83q-18 43 -18 90zM1206.5 182q-0.5 47 7.5 90q23 109 72 170h12v-18q0 -137 99 -246q100 -109 276 -108 q104 0 157.5 47t53.5 108.5t-48 108.5t-157 94l-215 100q-131 55 -192 162q-47 82 -47 180q0 33 4 66q45 317 389 317q115 0 309 -18h137l-49 -299h-12q0 100 -72.5 160.5t-193.5 60.5q-127 0 -181 -63q-27 -31 -30.5 -68t7.5 -62.5t42 -45.5q43 -29 119 -60l264 -121 q109 -47 164 -130.5t55 -192.5q0 -225 -162 -338q-143 -100 -397 -101q-152 0 -253 34t-140 83q-18 43 -18.5 90z" />
<glyph unicode="&#xe0;" horiz-adv-x="1294" d="M-86 0v20h16q43 0 87 25t69 76l422 909q100 219 106 273h17l577 -1178q54 -105 160 -105h16v-20h-718v20h14q41 0 60.5 21.5t19.5 41t-10 42.5l-60 135h-379l-61 -141q-8 -18 -8 -37t19.5 -40.5t60.5 -21.5h14v-20h-422zM188 1550q43 150 174 205q88 -76 183.5 -183.5 t132.5 -197.5l-14 -14q-106 12 -240.5 67.5t-235.5 122.5zM350 352h299l-149 344z" />
<glyph unicode="&#xe1;" horiz-adv-x="1294" d="M-86 0v20h16q43 0 87 25t69 76l422 909q100 219 106 273h17l577 -1178q54 -105 160 -105h16v-20h-720v20h16q41 0 60.5 21.5t19.5 41t-10 42.5l-60 135h-379l-61 -141q-8 -18 -8 -37t19.5 -40.5t60.5 -21.5h14v-20h-422zM350 352h299l-149 344zM575 1368 q37 90 132.5 197.5t183.5 183.5q131 -55 174 -205q-102 -68 -235.5 -123t-239.5 -67z" />
<glyph unicode="&#xe2;" horiz-adv-x="1294" d="M-86 0v20h16q43 0 87 25t69 76l422 909q100 219 106 273h17l577 -1178q54 -105 160 -105h16v-20h-720v20h16q41 0 60.5 21.5t19.5 41t-10 42.5l-60 135h-379l-61 -141q-8 -18 -8 -37t19.5 -40.5t60.5 -21.5h14v-20h-422zM262 1343l346 361h25l366 -361l-16 -16l-362 133 l-342 -133zM350 352h299l-149 344z" />
<glyph unicode="&#xe3;" horiz-adv-x="1294" d="M-86 0v20h16q43 0 87 25t69 76l422 909q98 219 106 273h17l577 -1178q54 -105 160 -105h16v-20h-720v20h16q41 0 60.5 21.5t19.5 41t-10 42.5l-60 135h-381l-59 -141q-8 -18 -8 -37t19.5 -40.5t60.5 -21.5h14v-20h-422zM260 1440q0 43 19 90q45 104 122 143 q47 25 106.5 25t170 -55.5t203.5 -55.5q29 0 79 29.5t64 60.5h25q12 -35 12 -74.5t-19 -78.5q-43 -102 -124 -140q-49 -25 -119 -24.5t-152 47.5q-33 18 -79 37.5t-73.5 24t-48 4.5t-51.5 -13q-80 -33 -104 -94h-25q-6 31 -6 74zM350 352h299l-149 344z" />
<glyph unicode="&#xe4;" horiz-adv-x="1294" d="M-86 0v20h16q43 0 87 25t69 76l422 909q100 219 106 273h17l577 -1178q54 -105 160 -105h16v-20h-720v20h16q41 0 60.5 21.5t19.5 41t-10 42.5l-60 135h-379l-61 -141q-8 -18 -8 -37t19.5 -40.5t60.5 -21.5h14v-20h-422zM197 1494q0 62 44 106.5t106.5 44.5t106.5 -44.5 t44 -106.5t-44 -107.5t-106.5 -45.5t-106.5 45.5t-44 107.5zM350 352h299l-149 344zM735 1494q0 62 44 106.5t106.5 44.5t106.5 -44.5t44 -106.5t-44 -107.5t-106.5 -45.5t-106.5 45.5t-44 107.5z" />
<glyph unicode="&#xe5;" horiz-adv-x="1294" d="M-86 0v20h16q43 0 87 25t69 76l422 909q98 219 106 273h17l577 -1178q54 -105 160 -105h16v-20h-720v20h16q41 0 60.5 21.5t19.5 41t-10 42.5l-60 135h-381l-59 -141q-8 -18 -8 -37t19.5 -40.5t60.5 -21.5h14v-20h-422zM350 352h299l-149 344zM379 1541q0 79 69.5 131 t173 52t172 -51t68.5 -130t-68.5 -132t-172 -53t-173 52t-69.5 131zM518 1551.5q0 -62.5 30 -96.5t74 -34t74.5 34t30.5 86t-30.5 87t-67.5 35t-62 -16q-49 -33 -49 -95.5z" />
<glyph unicode="&#xe6;" horiz-adv-x="1812" d="M-63 0v20h16q76 0 153 109l691 991q14 23 14 39q0 49 -53 49h-8v19h727q76 0 135 12t76 21v-386l-19 3v10q0 113 -62.5 177t-174.5 69h-220v-486h166q86 4 141.5 60.5t55.5 144.5v6h16v-516h-16v6q0 88 -54.5 144.5t-140.5 62.5h-168v-461h189q131 0 233.5 88t143.5 246 h18l-65 -428h-1016l2 20h16q49 0 74 41q12 18 12 41v453h-274l-269 -430q-12 -23 -12 -42.5t21.5 -41t62.5 -21.5h17v-20h-428zM604 647h215v344z" />
<glyph unicode="&#xe7;" horiz-adv-x="1368" d="M47 627q0 291 205 458.5t575 167.5q260 0 447 -73l-27 -349h-14q-53 180 -144.5 255t-226.5 75q-203 0 -300 -144.5t-97 -395t95 -399t267 -154.5q143 0 217 43q80 45 121 139q39 90 76 262h14l54 -328q-123 -209 -482 -209l-79 -92q29 10 49 10.5t41.5 0.5t62.5 -11.5 t65.5 -42t24.5 -55.5q0 -94 -65 -150q-86 -74 -205 -73q-57 0 -117 18l2 21q74 0 143.5 42t69.5 124q0 33 -33 57q-63 43 -168 10l-10 21l99 127q-311 27 -485.5 190.5t-174.5 454.5z" />
<glyph unicode="&#xe8;" horiz-adv-x="1177" d="M43 0v20h23q43 0 65 23q41 39 41 84v973q0 47 -31.5 77.5t-74.5 30.5h-23v21h799q51 0 114.5 10t87.5 21v-388h-20v11q0 119 -62.5 184.5t-177.5 67.5h-211v-482h158q90 2 146.5 60.5t56.5 150.5v4h20v-528h-20v8q0 90 -56.5 149.5t-146.5 59.5h-158v-463h197 q123 0 223.5 90t136.5 246h19l-57 -430h-1049zM154 1550q43 150 174 205q88 -76 183 -183.5t134 -197.5l-14 -14q-109 14 -242 68.5t-235 121.5z" />
<glyph unicode="&#xe9;" horiz-adv-x="1177" d="M43 0v20h23q43 0 65 23q41 39 41 84v973q0 47 -31.5 77.5t-74.5 30.5h-23v21h799q51 0 114.5 10t87.5 21v-388h-20v11q0 119 -62.5 184.5t-177.5 67.5h-211v-482h158q90 2 146.5 60.5t56.5 150.5v4h20v-528h-20v8q0 90 -56.5 149.5t-146.5 59.5h-158v-463h197 q123 0 223.5 90t136.5 246h19l-57 -430h-1049zM541 1368q39 92 133 198.5t182 182.5q131 -55 176 -205q-143 -94 -274 -137t-203 -53z" />
<glyph unicode="&#xea;" horiz-adv-x="1177" d="M43 0v20h23q43 0 65 23q41 39 41 84v973q0 47 -31.5 77.5t-74.5 30.5h-23v21h799q51 0 114.5 10t87.5 21v-388h-20v11q0 119 -62.5 184.5t-177.5 67.5h-211v-482h158q90 2 146.5 60.5t56.5 150.5v4h20v-528h-20v8q0 90 -56.5 149.5t-146.5 59.5h-158v-463h197 q123 0 223.5 90t136.5 246h19l-57 -430h-1049zM229 1346l344 358h25l367 -358l-15 -17l-364 131l-342 -131z" />
<glyph unicode="&#xeb;" horiz-adv-x="1177" d="M43 0v20h23q43 0 65 23q41 39 41 84v973q0 47 -31.5 77.5t-74.5 30.5h-23v21h799q51 0 114.5 10t87.5 21v-388h-20v11q0 160 -109 219q-53 31 -131 33h-211v-482h158q90 2 146.5 60.5t56.5 150.5v4h20v-528h-20v8q0 90 -56.5 149.5t-146.5 59.5h-158v-463h197 q123 0 223.5 90t136.5 246h19l-57 -430h-1049zM162 1494q0 62 44 106.5t106.5 44.5t107.5 -44.5t45 -106.5t-45 -106.5t-107.5 -44.5t-106.5 44.5t-44 106.5zM700 1494q0 62 44 106.5t106.5 44.5t106.5 -44.5t44 -106.5t-44 -106.5t-106.5 -44.5t-106.5 44.5t-44 106.5z" />
<glyph unicode="&#xec;" horiz-adv-x="741" d="M-70 1550q41 150 174 205q88 -76 183.5 -182.5t134.5 -198.5l-14 -14q-109 14 -242 68.5t-236 121.5zM43 0v20h23q43 0 73.5 31t30.5 76v975q0 45 -30.5 75.5t-73.5 30.5h-23v21h655v-21h-20q-61 0 -90 -51q-14 -25 -17 -55v-975q2 -72 66 -98q21 -9 41 -9h22v-20h-657z " />
<glyph unicode="&#xed;" horiz-adv-x="741" d="M43 0v20h23q43 0 73.5 31t30.5 76v975q0 45 -30.5 75.5t-73.5 30.5h-23v21h655v-21h-20q-61 0 -90 -51q-14 -25 -17 -55v-975q2 -72 66 -98q21 -9 41 -9h22v-20h-657zM317 1370q39 90 133.5 196.5t184.5 182.5q131 -55 174 -205q-102 -68 -235 -122t-242 -66z" />
<glyph unicode="&#xee;" horiz-adv-x="741" d="M6 1346l346 358h25l364 -358l-14 -17l-365 131l-342 -131zM43 0v20h23q43 0 73.5 31t30.5 76v975q0 45 -30.5 75.5t-73.5 30.5h-23v21h655v-21h-20q-43 0 -74 -30.5t-33 -75.5v-975q2 -72 66 -98q21 -9 41 -9h22v-20h-657z" />
<glyph unicode="&#xef;" horiz-adv-x="741" d="M-61 1494q0 62 45 106.5t107.5 44.5t106.5 -44.5t44 -106.5t-44 -106.5t-106.5 -44.5t-107.5 44.5t-45 106.5zM43 0v20h23q43 0 73.5 31t30.5 76v975q0 45 -30.5 75.5t-73.5 30.5h-23v21h655v-21h-20q-61 0 -90 -51q-14 -25 -17 -55v-975q2 -45 33 -76t74 -31h22v-20 h-657zM477 1494q0 62 44 106.5t106.5 44.5t106.5 -44.5t44 -106.5t-44 -106.5t-106.5 -44.5t-106.5 44.5t-44 106.5z" />
<glyph unicode="&#xf0;" horiz-adv-x="1517" d="M37 1208v21h698q348 0 540.5 -162t192.5 -453.5t-192.5 -452.5t-540.5 -161h-696v20h24q47 0 72 23q43 39 43 84v442h-137v93h137v442q-2 45 -35.5 74.5t-81.5 29.5h-24zM580 94h116q164 0 258.5 137.5t94.5 382.5q0 332 -164 461q-80 61 -189 62h-116v-475h215v-93h-215 v-475z" />
<glyph unicode="&#xf1;" horiz-adv-x="1595" d="M25 0v20h32q47 0 80 30t33 73v915q0 123 -18 195l-7 22h19l858 -725v576q0 61 -55 90q-25 12 -56 12h-34v21h696v-21h-35q-47 0 -80 -28.5t-33 -71.5v-909q0 -133 19 -201l6 -23h-18l-861 723v-575q2 -43 34 -73t79 -30h33v-20h-692zM377 1425q0 123 90 211 q63 61 140 61.5t187.5 -55t202.5 -55.5q31 0 81.5 29.5t62.5 60.5h26q12 -35 12.5 -74.5t-18.5 -78.5q-45 -102 -125 -140q-49 -25 -112.5 -24.5t-165.5 51.5q-100 51 -137 56.5t-67 5.5t-79 -33t-65 -74h-27q-6 29 -6 59z" />
<glyph unicode="&#xf2;" horiz-adv-x="1595" d="M51 614.5q0 303.5 197.5 471t549 167.5t549 -167.5t197.5 -471t-197.5 -471.5t-549 -168t-549 168t-197.5 471.5zM362 1552q43 150 175 203q88 -76 183 -182.5t134 -196.5l-14 -14q-109 12 -242 67.5t-236 122.5zM469 614.5q0 -262.5 84 -404.5t243.5 -142t243.5 142 t84 402q0 354 -147 484q-74 66 -180 65q-160 0 -244 -142t-84 -404.5z" />
<glyph unicode="&#xf3;" horiz-adv-x="1595" d="M51 614.5q0 303.5 197.5 471t549 167.5t549 -167.5t197.5 -471t-197.5 -471.5t-549 -168t-549 168t-197.5 471.5zM469 614.5q0 -262.5 84 -404.5t243.5 -142t243.5 142t84 402q0 354 -147 484q-74 66 -180 65q-160 0 -244 -142t-84 -404.5zM750 1370q39 90 133 197.5 t184 183.5q131 -55 174 -205q-102 -68 -235 -123t-242 -67z" />
<glyph unicode="&#xf4;" horiz-adv-x="1595" d="M51 614.5q0 303.5 197.5 471t549 167.5t549 -167.5t197.5 -471t-197.5 -471.5t-549 -168t-549 168t-197.5 471.5zM438 1346l346 360h25l365 -360l-15 -17l-364 133l-342 -133zM469 614.5q0 -262.5 84 -404.5t243.5 -142t243.5 142t84 404.5t-84 404.5t-243.5 142 t-243.5 -142t-84 -404.5z" />
<glyph unicode="&#xf5;" horiz-adv-x="1595" d="M51 614.5q0 303.5 197.5 471t549 167.5t549 -167.5t197.5 -471t-197.5 -471.5t-549 -168t-549 168t-197.5 471.5zM432 1427q0 123 92 211q63 61 140 61.5t188 -55t203 -55.5q31 0 81 29.5t62 60.5h25q12 -35 12 -74.5t-16 -78.5q-45 -102 -125 -142q-49 -23 -114 -22.5 t-165 51.5q-100 49 -137 55.5t-66.5 6.5t-79 -33t-67.5 -74h-25q-8 27 -8 59zM469 613q0 -261 84 -403t243.5 -142t243.5 142t84 402q0 354 -147 484q-74 66 -180 65q-160 0 -244 -143.5t-84 -404.5z" />
<glyph unicode="&#xf6;" horiz-adv-x="1595" d="M51 614.5q0 303.5 197.5 471t549 167.5t549 -167.5t197.5 -471t-197.5 -471.5t-549 -168t-549 168t-197.5 471.5zM371 1496.5q0 62.5 45 106.5t107.5 44t106.5 -44t44 -106.5t-44 -108t-106.5 -45.5t-107.5 45.5t-45 108zM469 614.5q0 -262.5 84 -404.5t243.5 -142 t243.5 142t84 402q0 354 -147 484q-74 66 -180 65q-160 0 -244 -142t-84 -404.5zM909 1496.5q0 62.5 44 106.5t106.5 44t106.5 -44t44 -106.5t-44 -108t-106.5 -45.5t-106.5 45.5t-44 108z" />
<glyph unicode="&#xf7;" horiz-adv-x="985" d="M82 567v133h823v-133h-823zM385 312q0 44 32 75t76 31t75.5 -31t31.5 -75t-31.5 -75.5t-75.5 -31.5t-76 31.5t-32 75.5zM385 959.5q0 44.5 32 75t76 30.5t75.5 -30.5t31.5 -75t-31.5 -76t-75.5 -31.5t-76 31.5t-32 76z" />
<glyph unicode="&#xf8;" horiz-adv-x="1595" d="M51 598.5q0 319.5 197.5 487t548.5 167.5q227 0 397 -77l119 141l88 -72l-107 -127q250 -172 250 -506q0 -301 -197.5 -469t-549.5 -168q-233 0 -404 76l-100 -119l-90 74l88 105q-240 168 -240 487.5zM469 612q0 -147 29 -258l551 650q-84 158 -248 157.5t-248 -142.5 t-84 -407zM543 229q84 -162 248.5 -161.5t248.5 142.5t84 402q0 156 -30 271z" />
<glyph unicode="&#xf9;" horiz-adv-x="1449" d="M39 1212v17h635v-17h-29q-37 0 -61.5 -24.5t-26.5 -63.5v-667q0 -246 137 -338q68 -45 162 -45q139 0 215 94t78 266v690q-2 53 -45 78q-20 10 -45 10h-27v17h395v-17h-26q-37 0 -63.5 -25.5t-26.5 -62.5v-667q0 -227 -135.5 -354.5t-384.5 -127.5q-635 0 -635 478v671 q0 53 -45 78q-20 10 -45 10h-27zM379 1550q43 150 174 205q127 -109 208.5 -214.5t108.5 -166.5l-14 -14q-109 12 -242 67.5t-235 122.5z" />
<glyph unicode="&#xfa;" horiz-adv-x="1449" d="M39 1212v17h635v-17h-29q-37 0 -61.5 -24.5t-26.5 -63.5v-667q0 -246 137 -338q68 -45 162 -45q139 0 215 94t78 266v690q-2 53 -45 78q-20 10 -45 10h-27v17h395v-17h-26q-37 0 -63.5 -25.5t-26.5 -62.5v-667q0 -227 -135.5 -354.5t-384.5 -127.5q-635 0 -635 478v671 q0 53 -45 78q-20 10 -45 10h-27zM766 1368q39 90 133 197.5t182 183.5q131 -55 176 -205q-102 -68 -236.5 -123t-240.5 -67z" />
<glyph unicode="&#xfb;" horiz-adv-x="1449" d="M39 1212v17h635v-17h-29q-37 0 -62.5 -24.5t-25.5 -63.5v-667q0 -182 79 -282.5t219 -100.5t216 94t78 266v690q-2 39 -27.5 63.5t-62.5 24.5h-27v17h395v-17h-26q-37 0 -63.5 -25.5t-26.5 -62.5v-667q0 -227 -135.5 -354.5t-384.5 -127.5q-635 0 -635 478v671 q0 53 -45 78q-20 10 -45 10h-27zM455 1343l344 361h24l367 -361l-14 -16l-365 133l-342 -133z" />
<glyph unicode="&#xfc;" horiz-adv-x="1449" d="M39 1212v17h635v-17h-29q-37 0 -62.5 -24.5t-25.5 -63.5v-667q0 -246 137 -338q68 -45 162 -45q139 0 215 94t78 266v690q-2 39 -27.5 63.5t-62.5 24.5h-27v17h395v-17h-26q-37 0 -63.5 -25.5t-26.5 -62.5v-667q0 -227 -135.5 -354.5t-384.5 -127.5q-635 0 -635 478v671 q0 59 -56 82q-16 6 -34 6h-27zM387 1494q0 62 44 106.5t106.5 44.5t107.5 -44.5t45 -106.5t-45 -107.5t-107.5 -45.5t-106.5 45.5t-44 107.5zM926 1494q0 62 44 106.5t106.5 44.5t106.5 -44.5t44 -106.5t-44 -107.5t-106.5 -45.5t-106.5 45.5t-44 107.5z" />
<glyph unicode="&#xfd;" horiz-adv-x="1296" d="M-98 1208v21h716v-21h-20q-39 0 -55.5 -25.5t-16.5 -44t11 -34.5l254 -430l247 430q10 16 10.5 33.5t-17 44t-54.5 26.5h-21v21h445v-21h-27q-53 0 -99 -27.5t-75 -68.5l-346 -541v-444q2 -63 57 -92q25 -14 56 -15h22v-20h-672v20h25q45 0 78 31t33 76v442l-353 543 q-29 41 -76 68.5t-98 27.5h-24zM715 1368q39 90 134 197.5t183 183.5q131 -55 174 -205q-102 -68 -235 -123t-242 -67z" />
<glyph unicode="&#xfe;" d="M76 0v20h22q47 0 80 31t33 78v973q0 45 -33 75.5t-80 30.5h-22v21h663l-2 -21h-20q-66 0 -99 -51q-14 -25 -16 -55v-117h156q256 0 375 -94q129 -100 129 -270q0 -80 -31 -158q-63 -152 -240 -205q-45 -14 -88 -14q-139 0 -254 86l-2 16q92 10 154 115q49 80 49 186 q0 117 -59.5 181.5t-157.5 64.5h-29v-764q0 -63 55 -94q27 -14 58 -15h20l2 -20h-663z" />
<glyph unicode="&#xff;" horiz-adv-x="1296" d="M-98 1208v21h716v-21h-20q-39 0 -55.5 -25.5t-16.5 -44t11 -34.5l254 -430l247 430q10 16 10.5 33.5t-17 44t-54.5 26.5h-23v21h447v-21h-27q-53 0 -99 -27.5t-75 -68.5l-346 -541v-444q0 -45 33 -76t80 -31h22v-20h-672v20h25q45 0 78 31t33 76v442l-353 543 q-39 57 -89 76.5t-85 19.5h-24zM338 1494q0 62 44 106.5t106.5 44.5t106.5 -44.5t44 -106.5t-44 -107.5t-106.5 -45.5t-106.5 45.5t-44 107.5zM874 1494q0 62 45.5 106.5t108 44.5t106.5 -44.5t44 -106.5t-44 -107.5t-106.5 -45.5t-108 45.5t-45.5 107.5z" />
<glyph unicode="&#x152;" horiz-adv-x="2338" d="M72 720q0 349 230 545.5t638 196.5q94 0 200.5 -14t170.5 -14h631q63 0 137.5 12t105.5 24v-421h-20v16q0 164 -119 229q-57 33 -137 35h-297v-571h223q98 2 159.5 64.5t61.5 160.5v8h21v-569h-21v10q0 131 -104 193q-51 29 -115 30h-225v-551h252q150 0 264.5 98.5 t161.5 272.5h20l-78 -475h-921q-80 0 -201 -14.5t-195 -14.5q-387 0 -615 200t-228 549zM506 719q0 -303 119.5 -474t318.5 -171q106 0 176 45t70 94v1008q0 47 -67.5 93t-176.5 46q-195 0 -317.5 -169t-122.5 -472z" />
<glyph unicode="&#x153;" horiz-adv-x="2041" d="M51 621q0 199 90 342t262 218.5t410 75.5q76 0 165 -12t144 -12h586q135 2 209 33v-381h-21v10q0 152 -106 213q-51 29 -125 31h-242v-486h179q88 2 144 59.5t56 147.5v6h21v-516h-21v6q0 88 -55 145.5t-143 59.5h-181v-467h211q174 0 287 152q55 74 84 178h20l-63 -426 h-893l-31 -2q-31 -2 -75 -8q-94 -13 -172 -13q-340 0 -540 171t-200 475zM455 610q0 -256 100 -399q98 -143 262 -143q94 0 152.5 41t58.5 84v847q0 41 -57.5 83t-151.5 42q-160 0 -262 -143t-102 -412z" />
<glyph unicode="&#x178;" horiz-adv-x="1492" d="M-92 1413v21h790v-21h-24q-45 0 -70 -41q-14 -23 -14 -44t12 -42l281 -506l291 506q12 20 12 41t-15 43q-27 43 -69 43h-25v21h510v-21h-28q-61 0 -118 -35t-89 -86l-402 -633v-509q0 -53 38 -91.5t93 -38.5h25v-20h-733v20h26q53 0 91 37t40 90v512l-391 637 q-31 49 -87 83t-115 34h-29zM463 1698.5q0 62.5 45 106.5t107.5 44t106.5 -44t44 -106.5t-44 -107.5t-106.5 -45t-107.5 45t-45 107.5zM1001 1698.5q0 62.5 44.5 106.5t106.5 44t106.5 -44t44.5 -106.5t-44.5 -107.5t-106.5 -45t-106.5 45t-44.5 107.5z" />
<glyph unicode="&#x2c6;" d="M207 1370l346 359h25l366 -359l-16 -16l-363 131l-344 -131z" />
<glyph unicode="&#x2dc;" d="M188 1382q0 123 93 211q61 61 139 61.5t188.5 -55t202.5 -55.5q31 0 80 29.5t63 62.5h25q12 -37 12 -75.5t-18 -79.5q-43 -100 -125 -140q-49 -25 -112.5 -24.5t-164.5 51.5q-102 51 -138 56.5t-66.5 5.5t-79.5 -33t-66 -74h-24q-8 29 -9 59z" />
<glyph unicode="&#x2000;" horiz-adv-x="994" />
<glyph unicode="&#x2001;" horiz-adv-x="1989" />
<glyph unicode="&#x2002;" horiz-adv-x="994" />
<glyph unicode="&#x2003;" horiz-adv-x="1989" />
<glyph unicode="&#x2004;" horiz-adv-x="663" />
<glyph unicode="&#x2005;" horiz-adv-x="497" />
<glyph unicode="&#x2006;" horiz-adv-x="331" />
<glyph unicode="&#x2007;" horiz-adv-x="331" />
<glyph unicode="&#x2008;" horiz-adv-x="248" />
<glyph unicode="&#x2009;" horiz-adv-x="397" />
<glyph unicode="&#x200a;" horiz-adv-x="110" />
<glyph unicode="&#x2010;" horiz-adv-x="778" d="M61 598l21 82h614l21 -82l-21 -84h-614z" />
<glyph unicode="&#x2011;" horiz-adv-x="778" d="M61 598l21 82h614l21 -82l-21 -84h-614z" />
<glyph unicode="&#x2012;" horiz-adv-x="778" d="M61 598l21 82h614l21 -82l-21 -84h-614z" />
<glyph unicode="&#x2013;" horiz-adv-x="1024" d="M0 535v122h1024v-122h-1024z" />
<glyph unicode="&#x2014;" horiz-adv-x="1638" d="M0 535v122h1638v-122h-1638z" />
<glyph unicode="&#x2018;" horiz-adv-x="569" d="M71.5 1359q0.5 81 34.5 152q76 158 216 205q47 14 85.5 14.5t69.5 -4.5l8 -30q-32 -15 -57 -41.5t-35 -54t-10 -48.5q0 -72 57.5 -137t57.5 -149q0 -111 -74 -164q-49 -37 -96 -37q-164 0 -222 129q-35 84 -34.5 165z" />
<glyph unicode="&#x2019;" horiz-adv-x="548" d="M72 1546q0 106 69 156q49 37 92 37q156 0 211 -123q33 -80 33 -158t-33 -145q-72 -150 -204 -195q-45 -14 -82 -14t-66 4l-8 29q53 22 80 73q14 27 15 44.5t1 33.5q0 53 -54 115.5t-54 142.5z" />
<glyph unicode="&#x201a;" horiz-adv-x="569" d="M72 170q0 111 73 164q51 39 97 39q164 0 223 -131q33 -82 33 -163t-35 -155q-76 -156 -215 -203q-47 -16 -86 -16t-68 6l-10 29q70 31 92 96q10 29 10 49q0 70 -57 135.5t-57 149.5z" />
<glyph unicode="&#x201c;" horiz-adv-x="1081" d="M71.5 1359q0.5 81 34.5 152q76 158 216 205q47 14 85.5 14.5t69.5 -4.5l8 -30q-32 -15 -57 -41.5t-35 -54t-10 -48.5q0 -72 57.5 -137t57.5 -149q0 -111 -74 -164q-49 -37 -96 -37q-164 0 -222 129q-35 84 -34.5 165zM565 1359q0 81 35 152q76 158 215 205q47 14 86 14.5 t70 -4.5l8 -30q-33 -15 -57.5 -41.5t-34.5 -54t-10 -48.5q0 -72 57 -137t57 -149q0 -111 -73 -164q-49 -37 -97 -37q-164 0 -221 129q-35 84 -35 165z" />
<glyph unicode="&#x201d;" horiz-adv-x="1019" d="M72 1546q0 106 69 156q49 37 92 37q156 0 211 -123q33 -80 33 -158t-33 -145q-72 -150 -204 -195q-45 -14 -82 -14t-66 4l-8 29q53 22 80 73q14 27 15 44.5t1 33.5q0 53 -54 115.5t-54 142.5zM543 1546q0 106 69 156q49 37 93 37q156 0 210 -123q33 -72 33 -138.5 t-16.5 -122t-52.5 -106.5q-100 -145 -261 -145q-27 0 -55 4l-8 29q53 22 80 73q14 27 15 44.5t1 33.5q0 53 -54 115.5t-54 142.5z" />
<glyph unicode="&#x201e;" horiz-adv-x="1060" d="M72 156q0 111 73 163q51 39 97 39q164 0 223 -131q33 -82 33 -162.5t-35 -154.5q-76 -156 -215 -203q-47 -16 -86 -16t-68 6l-10 29q70 31 92 96q10 27 10 49q0 70 -57 135.5t-57 149.5zM563 156q0 111 74 163q51 39 96 39q164 0 223 -131q33 -82 33 -162.5t-35 -154.5 q-76 -156 -215 -203q-47 -16 -86 -16t-67 6l-8 29q68 31 90 96q10 27 10 49q0 70 -57.5 135.5t-57.5 149.5z" />
<glyph unicode="&#x2022;" horiz-adv-x="796" d="M102.5 681.5q-0.5 20.5 8.5 41.5q43 131 79.5 168t167.5 80q20 6 41 6t41 -6q131 -43 168 -80t80 -168q6 -20 6 -42t-15 -69t-29.5 -78.5t-43 -60.5t-61.5 -43t-79 -29.5t-66.5 -15.5t-41.5 8q-131 43 -167.5 80t-79.5 168q-8 20 -8.5 40.5z" />
<glyph unicode="&#x2026;" horiz-adv-x="1515" d="M72 155.5q0 75.5 54 130t130 54.5t130 -54.5t54 -130t-54 -130t-130 -54.5t-130 54.5t-54 130zM573 155.5q0 75.5 54.5 130t130.5 54.5t130 -54.5t54 -130t-54 -130t-130 -54.5t-130.5 54.5t-54.5 130zM1075 155.5q0 75.5 54.5 130t130 54.5t130 -54.5t54.5 -130 t-54.5 -130t-130 -54.5t-130 54.5t-54.5 130z" />
<glyph unicode="&#x202f;" horiz-adv-x="397" />
<glyph unicode="&#x2039;" horiz-adv-x="681" d="M82 598l461 406l16 -11l-160 -395l162 -403l-18 -15z" />
<glyph unicode="&#x203a;" horiz-adv-x="681" d="M123 195l162 403l-160 395l16 11l461 -406l-461 -418z" />
<glyph unicode="&#x205f;" horiz-adv-x="497" />
<glyph unicode="&#x20ac;" horiz-adv-x="1419" d="M-82 541l39 102h188q-6 72 0 143h-227l37 103h205q37 168 138 297t263 202.5t330 73.5t307 -30.5t186 -90.5l-108 -317h-21q2 10 2 55t-24.5 109.5t-69.5 101.5q-88 70 -207 70q-315 0 -364 -471h639l-37 -103h-610v-67v-76h563l-33 -102h-522q51 -465 393 -465 q150 0 240 89t141 273h18v-338q-59 -61 -196.5 -94t-272.5 -33q-291 0 -493.5 156t-259.5 412h-244z" />
<glyph unicode="&#x2122;" horiz-adv-x="1048" d="M20 1317v129q27 -10 70 -10h270q43 0 70 10v-129h-6v4q0 39 -21.5 60.5t-60.5 21.5h-49v-336q0 -16 10 -26.5t27 -10.5h6v-6h-221v6h8q14 0 24.5 10.5t10.5 26.5v336h-49q-39 0 -60.5 -21.5t-21.5 -60.5v-4h-7zM420 1024v6h10q33 0 41 31l55 383h4l205 -258l183 258h6 l55 -381q8 -33 41 -33h10v-6h-221v6h10q8 0 14.5 7t8.5 16l-25 157l-94 -131q-27 -39 -25 -69h-6l-153 190l-19 -147q0 -8 7.5 -15.5t15.5 -7.5h8v-6h-131z" />
<glyph unicode="&#xe000;" d="M0 0v1229h1229v-1229h-1229z" />
<glyph unicode="&#xfb01;" horiz-adv-x="1853" d="M43 0v20h23q43 0 74.5 31t31.5 76v973q0 47 -31.5 77.5t-74.5 30.5h-23v21h799q51 0 114.5 10t87.5 21v-392h-20v13q0 160 -111 221q-55 31 -133 33h-207v-482h156q125 2 180 103q25 47 25 108v4h20v-528h-20v8q0 90 -56.5 149.5t-148.5 59.5h-156v-430q2 -63 54 -92 q25 -14 55 -15h20v-20h-659zM1153 0v20h23q43 0 73.5 31t30.5 76v975q-2 72 -66 98q-18 8 -38 8h-23v21h655v-21h-20q-61 0 -90 -51q-14 -25 -17 -55v-975q2 -45 33 -76t74 -31h22v-20h-657z" />
<glyph unicode="&#xfb02;" horiz-adv-x="2250" d="M43 0v20h23q43 0 74.5 31t31.5 76v973q0 47 -31.5 77.5t-74.5 30.5h-23v21h799q51 0 114.5 10t87.5 21v-392h-20v13q0 160 -111 221q-55 31 -133 33h-207v-482h156q125 2 180 103q25 47 25 108v4h20v-528h-20v8q0 90 -56.5 149.5t-148.5 59.5h-156v-430q2 -63 54 -92 q25 -14 55 -15h20v-20h-659zM1153 0v20h23q43 0 74.5 31t31.5 76v975q-2 63 -55 92q-23 14 -51 14h-23v21h662v-21h-23q-63 0 -94 -51q-14 -25 -15 -55v-1008h197q123 0 222.5 90t138.5 246h20l-59 -430h-1049z" />
</font>
</defs>
</svg>
